<svg width="567" height="713" viewBox="0 0 567 713" fill="none" xmlns="http://www.w3.org/2000/svg">
<g filter="url(#filter0_d_545_1482)">
<rect x="51" width="461" height="693" rx="18" fill="white"/>
</g>
<path d="M94.16 33V26.06H87.38V27.82H92.3C92.22 29.28 91.08 31.52 87.92 31.52C85.38 31.52 82.98 29.66 82.98 25.9C82.98 22.14 85.46 20.32 88 20.32C90.2 20.32 91.86 21.52 92.5 23.56L94.28 22.8C93.46 20.24 91.08 18.52 88 18.52C84.5 18.52 80.98 21.1 80.98 25.9C80.98 30.7 84.3 33.3 87.86 33.3C90.24 33.3 91.78 32.12 92.4 31L92.58 33H94.16ZM96.3292 30.42C96.3292 31.94 97.5892 33.3 99.5492 33.3C101.269 33.3 102.229 32.38 102.649 31.7C102.649 32.4 102.709 32.76 102.749 33H104.589C104.549 32.76 104.469 32.26 104.469 31.42V26.6C104.469 24.72 103.349 23.08 100.469 23.08C98.3892 23.08 96.7292 24.36 96.5292 26.2L98.3292 26.62C98.4492 25.5 99.1892 24.68 100.509 24.68C101.969 24.68 102.589 25.46 102.589 26.4C102.589 26.74 102.429 27.04 101.849 27.12L99.2492 27.5C97.5892 27.74 96.3292 28.7 96.3292 30.42ZM99.8092 31.72C98.8492 31.72 98.2492 31.04 98.2492 30.32C98.2492 29.46 98.8492 29 99.6492 28.88L102.589 28.44V28.88C102.589 30.98 101.349 31.72 99.8092 31.72ZM109.298 33V31.6C109.898 32.64 110.998 33.26 112.418 33.26C115.278 33.26 116.898 31 116.898 28.14C116.898 25.34 115.398 23.1 112.478 23.1C110.878 23.1 109.758 23.88 109.298 24.74V18.52H107.438V33H109.298ZM114.978 28.14C114.978 30.22 113.858 31.58 112.138 31.58C110.478 31.58 109.278 30.22 109.278 28.14C109.278 26.06 110.478 24.76 112.138 24.76C113.878 24.76 114.978 26.06 114.978 28.14ZM124.653 23.28C124.553 23.26 124.293 23.22 124.033 23.22C123.053 23.22 121.853 23.58 121.153 25.06V23.38H119.313V33H121.193V28.18C121.193 26.06 122.253 25.22 123.833 25.22C124.093 25.22 124.373 25.24 124.653 25.28V23.28ZM128.439 33V23.38H126.579V33H128.439ZM126.159 19.74C126.159 20.48 126.759 21.08 127.499 21.08C128.259 21.08 128.859 20.48 128.859 19.74C128.859 18.98 128.259 18.38 127.499 18.38C126.759 18.38 126.159 18.98 126.159 19.74ZM132.841 27.2C132.921 25.96 133.881 24.74 135.461 24.74C137.161 24.74 138.061 25.82 138.101 27.2H132.841ZM138.381 29.7C138.021 30.78 137.241 31.64 135.681 31.64C134.061 31.64 132.821 30.44 132.781 28.72H140.021C140.041 28.6 140.061 28.36 140.061 28.12C140.061 25.12 138.401 23.08 135.441 23.08C133.021 23.08 130.841 25.14 130.841 28.16C130.841 31.42 133.101 33.3 135.681 33.3C137.921 33.3 139.461 31.96 140.001 30.26L138.381 29.7ZM144.298 33V18.52H142.418V33H144.298ZM161.419 33V31.16H154.719V18.82H152.759V33H161.419ZM164.462 27.2C164.542 25.96 165.502 24.74 167.082 24.74C168.782 24.74 169.682 25.82 169.722 27.2H164.462ZM170.002 29.7C169.642 30.78 168.862 31.64 167.302 31.64C165.682 31.64 164.442 30.44 164.402 28.72H171.642C171.662 28.6 171.682 28.36 171.682 28.12C171.682 25.12 170.022 23.08 167.062 23.08C164.642 23.08 162.462 25.14 162.462 28.16C162.462 31.42 164.722 33.3 167.302 33.3C169.542 33.3 171.082 31.96 171.622 30.26L170.002 29.7ZM175.4 27.2C175.48 25.96 176.44 24.74 178.02 24.74C179.72 24.74 180.62 25.82 180.66 27.2H175.4ZM180.94 29.7C180.58 30.78 179.8 31.64 178.24 31.64C176.62 31.64 175.38 30.44 175.34 28.72H182.58C182.6 28.6 182.62 28.36 182.62 28.12C182.62 25.12 180.96 23.08 178 23.08C175.58 23.08 173.4 25.14 173.4 28.16C173.4 31.42 175.66 33.3 178.24 33.3C180.48 33.3 182.02 31.96 182.56 30.26L180.94 29.7Z" fill="black"/>
<rect x="75.5" y="150.5" width="133" height="33" rx="16.5" stroke="#61A180"/>
<path d="M96.0702 170.236L93.0742 162.074H91.6182L95.3562 172H96.7142L100.536 162.074H99.0942L96.0702 170.236ZM103.151 172V165.266H101.849V172H103.151ZM101.555 162.718C101.555 163.236 101.975 163.656 102.493 163.656C103.025 163.656 103.445 163.236 103.445 162.718C103.445 162.186 103.025 161.766 102.493 161.766C101.975 161.766 101.555 162.186 101.555 162.718ZM106.233 167.94C106.289 167.072 106.961 166.218 108.067 166.218C109.257 166.218 109.887 166.974 109.915 167.94H106.233ZM110.111 169.69C109.859 170.446 109.313 171.048 108.221 171.048C107.087 171.048 106.219 170.208 106.191 169.004H111.259C111.273 168.92 111.287 168.752 111.287 168.584C111.287 166.484 110.125 165.056 108.053 165.056C106.359 165.056 104.833 166.498 104.833 168.612C104.833 170.894 106.415 172.21 108.221 172.21C109.789 172.21 110.867 171.272 111.245 170.082L110.111 169.69ZM116.791 165.266L115.041 170.334L113.529 165.266H112.087L114.299 172H115.685L117.435 166.876L119.227 172H120.585L122.769 165.266H121.383L119.899 170.334L118.149 165.266H116.791ZM131.993 172.21C134.275 172.21 135.843 170.88 136.375 169.018L135.157 168.57C134.751 169.928 133.687 170.95 131.993 170.95C130.187 170.95 128.465 169.62 128.465 167.03C128.465 164.44 130.187 163.124 131.993 163.124C133.617 163.124 134.709 163.964 135.087 165.462L136.361 165.014C135.857 163.096 134.261 161.864 131.993 161.864C129.529 161.864 127.065 163.712 127.065 167.03C127.065 170.348 129.431 172.21 131.993 172.21ZM137.468 170.194C137.468 171.258 138.35 172.21 139.722 172.21C140.926 172.21 141.598 171.566 141.892 171.09C141.892 171.58 141.934 171.832 141.962 172H143.25C143.222 171.832 143.166 171.482 143.166 170.894V167.52C143.166 166.204 142.382 165.056 140.366 165.056C138.91 165.056 137.748 165.952 137.608 167.24L138.868 167.534C138.952 166.75 139.47 166.176 140.394 166.176C141.416 166.176 141.85 166.722 141.85 167.38C141.85 167.618 141.738 167.828 141.332 167.884L139.512 168.15C138.35 168.318 137.468 168.99 137.468 170.194ZM139.904 171.104C139.232 171.104 138.812 170.628 138.812 170.124C138.812 169.522 139.232 169.2 139.792 169.116L141.85 168.808V169.116C141.85 170.586 140.982 171.104 139.904 171.104ZM146.56 168.108C146.56 167.086 147.092 166.26 148.128 166.26C149.304 166.26 149.696 167.016 149.696 167.954V172H151.012V167.73C151.012 166.232 150.214 165.07 148.604 165.07C147.82 165.07 147.022 165.392 146.532 166.232V165.266H145.244V172H146.56V168.108ZM153.974 168.612C153.974 167.226 154.758 166.246 155.962 166.246C157.166 166.246 157.894 167.198 157.894 168.584C157.894 169.97 157.152 171.02 155.948 171.02C154.688 171.02 153.974 169.998 153.974 168.612ZM157.908 171.09C157.908 171.496 157.95 171.846 157.978 172H159.252C159.238 171.888 159.182 171.398 159.182 170.754V161.864H157.88V166.218C157.656 165.672 157.012 165.084 155.822 165.084C153.918 165.084 152.63 166.708 152.63 168.612C152.63 170.614 153.848 172.182 155.822 172.182C156.872 172.182 157.586 171.622 157.908 170.978V171.09ZM162.624 172V165.266H161.322V172H162.624ZM161.028 162.718C161.028 163.236 161.448 163.656 161.966 163.656C162.498 163.656 162.918 163.236 162.918 162.718C162.918 162.186 162.498 161.766 161.966 161.766C161.448 161.766 161.028 162.186 161.028 162.718ZM165.663 168.612C165.663 167.226 166.447 166.246 167.651 166.246C168.855 166.246 169.583 167.198 169.583 168.584C169.583 169.97 168.841 171.02 167.637 171.02C166.377 171.02 165.663 169.998 165.663 168.612ZM169.597 171.09C169.597 171.496 169.639 171.846 169.667 172H170.941C170.927 171.888 170.871 171.398 170.871 170.754V161.864H169.569V166.218C169.345 165.672 168.701 165.084 167.511 165.084C165.607 165.084 164.319 166.708 164.319 168.612C164.319 170.614 165.537 172.182 167.511 172.182C168.561 172.182 169.275 171.622 169.597 170.978V171.09ZM172.563 170.194C172.563 171.258 173.445 172.21 174.817 172.21C176.021 172.21 176.693 171.566 176.987 171.09C176.987 171.58 177.029 171.832 177.057 172H178.345C178.317 171.832 178.261 171.482 178.261 170.894V167.52C178.261 166.204 177.477 165.056 175.461 165.056C174.005 165.056 172.843 165.952 172.703 167.24L173.963 167.534C174.047 166.75 174.565 166.176 175.489 166.176C176.511 166.176 176.945 166.722 176.945 167.38C176.945 167.618 176.833 167.828 176.427 167.884L174.607 168.15C173.445 168.318 172.563 168.99 172.563 170.194ZM174.999 171.104C174.327 171.104 173.907 170.628 173.907 170.124C173.907 169.522 174.327 169.2 174.887 169.116L176.945 168.808V169.116C176.945 170.586 176.077 171.104 174.999 171.104ZM182.119 163.138H180.915V164.23C180.915 164.818 180.607 165.266 179.879 165.266H179.515V166.456H180.803V170.152C180.803 171.37 181.531 172.07 182.679 172.07C183.127 172.07 183.463 171.986 183.575 171.944V170.824C183.463 170.852 183.225 170.88 183.057 170.88C182.371 170.88 182.119 170.572 182.119 169.956V166.456H183.575V165.266H182.119V163.138ZM186.036 167.94C186.092 167.072 186.764 166.218 187.87 166.218C189.06 166.218 189.69 166.974 189.718 167.94H186.036ZM189.914 169.69C189.662 170.446 189.116 171.048 188.024 171.048C186.89 171.048 186.022 170.208 185.994 169.004H191.062C191.076 168.92 191.09 168.752 191.09 168.584C191.09 166.484 189.928 165.056 187.856 165.056C186.162 165.056 184.636 166.498 184.636 168.612C184.636 170.894 186.218 172.21 188.024 172.21C189.592 172.21 190.67 171.272 191.048 170.082L189.914 169.69Z" fill="#709F82"/>
<rect x="306" y="611" width="177" height="44" rx="22" fill="#61A180"/>
<path d="M366.878 638.26V627.56H369.818C372.438 627.56 374.598 629.36 374.598 632.94C374.598 636.5 372.398 638.26 369.778 638.26H366.878ZM369.838 640C373.438 640 376.618 637.58 376.618 632.94C376.618 628.28 373.478 625.82 369.878 625.82H364.918V640H369.838ZM380.507 634.2C380.587 632.96 381.547 631.74 383.127 631.74C384.827 631.74 385.727 632.82 385.767 634.2H380.507ZM386.047 636.7C385.687 637.78 384.907 638.64 383.347 638.64C381.727 638.64 380.487 637.44 380.447 635.72H387.687C387.707 635.6 387.727 635.36 387.727 635.12C387.727 632.12 386.067 630.08 383.107 630.08C380.687 630.08 378.507 632.14 378.507 635.16C378.507 638.42 380.767 640.3 383.347 640.3C385.587 640.3 387.127 638.96 387.667 637.26L386.047 636.7ZM394.284 631.82C395.924 631.82 396.624 632.92 396.864 633.86L398.564 633.14C398.164 631.68 396.844 630.08 394.284 630.08C391.544 630.08 389.444 632.18 389.444 635.18C389.444 638.1 391.504 640.3 394.304 640.3C396.804 640.3 398.184 638.68 398.644 637.3L396.984 636.58C396.764 637.34 396.104 638.56 394.304 638.56C392.744 638.56 391.364 637.38 391.364 635.18C391.364 632.94 392.764 631.82 394.284 631.82ZM402.726 640V630.38H400.866V640H402.726ZM400.446 626.74C400.446 627.48 401.046 628.08 401.786 628.08C402.546 628.08 403.146 627.48 403.146 626.74C403.146 625.98 402.546 625.38 401.786 625.38C401.046 625.38 400.446 625.98 400.446 626.74ZM407.068 635.16C407.068 633.18 408.188 631.78 409.908 631.78C411.628 631.78 412.668 633.14 412.668 635.12C412.668 637.1 411.608 638.6 409.888 638.6C408.088 638.6 407.068 637.14 407.068 635.16ZM412.688 638.7C412.688 639.28 412.748 639.78 412.788 640H414.608C414.588 639.84 414.508 639.14 414.508 638.22V625.52H412.648V631.74C412.328 630.96 411.408 630.12 409.708 630.12C406.988 630.12 405.148 632.44 405.148 635.16C405.148 638.02 406.888 640.26 409.708 640.26C411.208 640.26 412.228 639.46 412.688 638.54V638.7ZM418.925 634.2C419.005 632.96 419.965 631.74 421.545 631.74C423.245 631.74 424.145 632.82 424.185 634.2H418.925ZM424.465 636.7C424.105 637.78 423.325 638.64 421.765 638.64C420.145 638.64 418.905 637.44 418.865 635.72H426.105C426.125 635.6 426.145 635.36 426.145 635.12C426.145 632.12 424.485 630.08 421.525 630.08C419.105 630.08 416.925 632.14 416.925 635.16C416.925 638.42 419.185 640.3 421.765 640.3C424.005 640.3 425.545 638.96 426.085 637.26L424.465 636.7Z" fill="white"/>
<path d="M228.56 58.328C228.336 57.25 227.44 55.864 225.2 55.864C223.366 55.864 221.924 57.264 221.924 58.818C221.924 60.302 222.932 61.226 224.346 61.534L225.76 61.842C226.754 62.052 227.244 62.668 227.244 63.382C227.244 64.25 226.572 64.964 225.2 64.964C223.702 64.964 222.918 63.942 222.82 62.836L221.504 63.256C221.686 64.67 222.82 66.21 225.214 66.21C227.328 66.21 228.644 64.81 228.644 63.27C228.644 61.884 227.72 60.848 226.068 60.484L224.584 60.162C223.744 59.98 223.31 59.434 223.31 58.72C223.31 57.796 224.108 57.068 225.228 57.068C226.614 57.068 227.216 58.048 227.328 58.762L228.56 58.328ZM232.033 57.138H230.829V58.23C230.829 58.818 230.521 59.266 229.793 59.266H229.429V60.456H230.717V64.152C230.717 65.37 231.445 66.07 232.593 66.07C233.041 66.07 233.377 65.986 233.489 65.944V64.824C233.377 64.852 233.139 64.88 232.971 64.88C232.285 64.88 232.033 64.572 232.033 63.956V60.456H233.489V59.266H232.033V57.138ZM238.79 59.196C238.72 59.182 238.538 59.154 238.356 59.154C237.67 59.154 236.83 59.406 236.34 60.442V59.266H235.052V66H236.368V62.626C236.368 61.142 237.11 60.554 238.216 60.554C238.398 60.554 238.594 60.568 238.79 60.596V59.196ZM240.967 61.94C241.023 61.072 241.695 60.218 242.801 60.218C243.991 60.218 244.621 60.974 244.649 61.94H240.967ZM244.845 63.69C244.593 64.446 244.047 65.048 242.955 65.048C241.821 65.048 240.953 64.208 240.925 63.004H245.993C246.007 62.92 246.021 62.752 246.021 62.584C246.021 60.484 244.859 59.056 242.787 59.056C241.093 59.056 239.567 60.498 239.567 62.612C239.567 64.894 241.149 66.21 242.955 66.21C244.523 66.21 245.601 65.272 245.979 64.082L244.845 63.69ZM248.987 62.108C248.987 61.086 249.519 60.26 250.555 60.26C251.731 60.26 252.123 61.016 252.123 61.954V66H253.439V61.73C253.439 60.232 252.641 59.07 251.031 59.07C250.247 59.07 249.449 59.392 248.959 60.232V59.266H247.671V66H248.987V62.108ZM255.044 66.364C255.212 67.806 256.472 68.87 258.152 68.87C260.686 68.87 261.526 67.204 261.526 65.496V59.266H260.224V60.204C259.888 59.532 259.188 59.14 258.152 59.14C256.304 59.14 255.058 60.596 255.058 62.416C255.058 64.32 256.36 65.678 258.152 65.678C259.16 65.678 259.888 65.188 260.21 64.572V65.538C260.21 66.994 259.566 67.722 258.152 67.722C257.13 67.722 256.416 67.008 256.318 66.07L255.044 66.364ZM258.348 64.572C257.158 64.572 256.402 63.732 256.402 62.416C256.402 61.114 257.186 60.26 258.348 60.26C259.482 60.26 260.266 61.114 260.266 62.416C260.266 63.718 259.482 64.572 258.348 64.572ZM265.488 57.138H264.284V58.23C264.284 58.818 263.976 59.266 263.248 59.266H262.884V60.456H264.172V64.152C264.172 65.37 264.9 66.07 266.048 66.07C266.496 66.07 266.832 65.986 266.944 65.944V64.824C266.832 64.852 266.594 64.88 266.426 64.88C265.74 64.88 265.488 64.572 265.488 63.956V60.456H266.944V59.266H265.488V57.138ZM269.823 62.038C269.851 61.044 270.383 60.26 271.391 60.26C272.567 60.26 272.959 61.016 272.959 61.954V66H274.275V61.73C274.275 60.232 273.477 59.07 271.867 59.07C271.097 59.07 270.313 59.336 269.823 60.05V55.864H268.507V66H269.823V62.038ZM275.796 64.25C275.908 65.02 276.692 66.21 278.54 66.21C280.206 66.21 281.004 65.076 281.004 64.124C281.004 63.13 280.36 62.388 279.142 62.122L278.05 61.884C277.532 61.772 277.28 61.478 277.28 61.072C277.28 60.61 277.728 60.176 278.4 60.176C279.464 60.176 279.744 60.946 279.8 61.296L280.962 60.862C280.822 60.26 280.248 59.056 278.4 59.056C277.084 59.056 276.006 60.036 276.006 61.184C276.006 62.136 276.636 62.85 277.686 63.074L278.834 63.326C279.394 63.452 279.702 63.774 279.702 64.194C279.702 64.67 279.296 65.09 278.554 65.09C277.602 65.09 277.07 64.53 276.986 63.83L275.796 64.25Z" fill="black"/>
<path d="M230.492 98V88.074H229.12V95.69L224.164 88.074H222.33V98H223.702V89.908L229.064 98H230.492ZM235.738 97.034C234.618 97.034 233.638 96.194 233.638 94.626C233.638 93.072 234.618 92.232 235.738 92.232C236.858 92.232 237.838 93.072 237.838 94.626C237.838 96.194 236.858 97.034 235.738 97.034ZM235.738 91.056C233.722 91.056 232.294 92.582 232.294 94.626C232.294 96.684 233.722 98.21 235.738 98.21C237.754 98.21 239.182 96.684 239.182 94.626C239.182 92.582 237.754 91.056 235.738 91.056ZM242.587 89.138H241.383V90.23C241.383 90.818 241.075 91.266 240.347 91.266H239.983V92.456H241.271V96.152C241.271 97.37 241.999 98.07 243.147 98.07C243.595 98.07 243.931 97.986 244.043 97.944V96.824C243.931 96.852 243.693 96.88 243.525 96.88C242.839 96.88 242.587 96.572 242.587 95.956V92.456H244.043V91.266H242.587V89.138ZM246.504 93.94C246.56 93.072 247.232 92.218 248.338 92.218C249.528 92.218 250.158 92.974 250.186 93.94H246.504ZM250.382 95.69C250.13 96.446 249.584 97.048 248.492 97.048C247.358 97.048 246.49 96.208 246.462 95.004H251.53C251.544 94.92 251.558 94.752 251.558 94.584C251.558 92.484 250.396 91.056 248.324 91.056C246.63 91.056 245.104 92.498 245.104 94.612C245.104 96.894 246.686 98.21 248.492 98.21C250.06 98.21 251.138 97.272 251.516 96.082L250.382 95.69ZM252.677 96.25C252.789 97.02 253.573 98.21 255.421 98.21C257.087 98.21 257.885 97.076 257.885 96.124C257.885 95.13 257.241 94.388 256.023 94.122L254.931 93.884C254.413 93.772 254.161 93.478 254.161 93.072C254.161 92.61 254.609 92.176 255.281 92.176C256.345 92.176 256.625 92.946 256.681 93.296L257.843 92.862C257.703 92.26 257.129 91.056 255.281 91.056C253.965 91.056 252.887 92.036 252.887 93.184C252.887 94.136 253.517 94.85 254.567 95.074L255.715 95.326C256.275 95.452 256.583 95.774 256.583 96.194C256.583 96.67 256.177 97.09 255.435 97.09C254.483 97.09 253.951 96.53 253.867 95.83L252.677 96.25Z" fill="black"/>
<path d="M226.614 130.21C228.896 130.21 230.464 128.88 230.996 127.018L229.778 126.57C229.372 127.928 228.308 128.95 226.614 128.95C224.808 128.95 223.086 127.62 223.086 125.03C223.086 122.44 224.808 121.124 226.614 121.124C228.238 121.124 229.33 121.964 229.708 123.462L230.982 123.014C230.478 121.096 228.882 119.864 226.614 119.864C224.15 119.864 221.686 121.712 221.686 125.03C221.686 128.348 224.052 130.21 226.614 130.21ZM235.533 129.034C234.413 129.034 233.433 128.194 233.433 126.626C233.433 125.072 234.413 124.232 235.533 124.232C236.653 124.232 237.633 125.072 237.633 126.626C237.633 128.194 236.653 129.034 235.533 129.034ZM235.533 123.056C233.517 123.056 232.089 124.582 232.089 126.626C232.089 128.684 233.517 130.21 235.533 130.21C237.549 130.21 238.977 128.684 238.977 126.626C238.977 124.582 237.549 123.056 235.533 123.056ZM241.974 126.108C241.974 125.086 242.506 124.26 243.542 124.26C244.718 124.26 245.11 125.016 245.11 125.954V130H246.426V125.73C246.426 124.232 245.628 123.07 244.018 123.07C243.234 123.07 242.436 123.392 241.946 124.232V123.266H240.658V130H241.974V126.108ZM251.418 124.274C252.566 124.274 253.056 125.044 253.224 125.702L254.414 125.198C254.134 124.176 253.21 123.056 251.418 123.056C249.5 123.056 248.03 124.526 248.03 126.626C248.03 128.67 249.472 130.21 251.432 130.21C253.182 130.21 254.148 129.076 254.47 128.11L253.308 127.606C253.154 128.138 252.692 128.992 251.432 128.992C250.34 128.992 249.374 128.166 249.374 126.626C249.374 125.058 250.354 124.274 251.418 124.274ZM256.977 125.94C257.033 125.072 257.705 124.218 258.811 124.218C260.001 124.218 260.631 124.974 260.659 125.94H256.977ZM260.855 127.69C260.603 128.446 260.057 129.048 258.965 129.048C257.831 129.048 256.963 128.208 256.935 127.004H262.003C262.017 126.92 262.031 126.752 262.031 126.584C262.031 124.484 260.869 123.056 258.797 123.056C257.103 123.056 255.577 124.498 255.577 126.612C255.577 128.894 257.159 130.21 258.965 130.21C260.533 130.21 261.611 129.272 261.989 128.082L260.855 127.69ZM267.419 123.196C267.349 123.182 267.167 123.154 266.985 123.154C266.299 123.154 265.459 123.406 264.969 124.442V123.266H263.681V130H264.997V126.626C264.997 125.142 265.739 124.554 266.845 124.554C267.027 124.554 267.223 124.568 267.419 124.596V123.196ZM270.083 126.108C270.083 125.086 270.615 124.26 271.651 124.26C272.827 124.26 273.219 125.016 273.219 125.954V130H274.535V125.73C274.535 124.232 273.737 123.07 272.127 123.07C271.343 123.07 270.545 123.392 270.055 124.232V123.266H268.767V130H270.083V126.108ZM276.055 128.25C276.167 129.02 276.951 130.21 278.799 130.21C280.465 130.21 281.263 129.076 281.263 128.124C281.263 127.13 280.619 126.388 279.401 126.122L278.309 125.884C277.791 125.772 277.539 125.478 277.539 125.072C277.539 124.61 277.987 124.176 278.659 124.176C279.723 124.176 280.003 124.946 280.059 125.296L281.221 124.862C281.081 124.26 280.507 123.056 278.659 123.056C277.343 123.056 276.265 124.036 276.265 125.184C276.265 126.136 276.895 126.85 277.945 127.074L279.093 127.326C279.653 127.452 279.961 127.774 279.961 128.194C279.961 128.67 279.555 129.09 278.813 129.09C277.861 129.09 277.329 128.53 277.245 127.83L276.055 128.25Z" fill="black"/>
<rect x="80" y="92" width="124" height="4" rx="2" fill="#C4C4C4" fill-opacity="0.2"/>
<rect x="80" y="58" width="124" height="4" rx="2" fill="#F3F3F3"/>
<rect x="80" y="58" width="104" height="4" rx="2" fill="#709F82"/>
<rect x="80" y="92" width="18" height="4" rx="2" fill="#2C64BC"/>
<rect x="80" y="124" width="124" height="4" rx="2" fill="#F3F3F3"/>
<rect x="429.5" y="50.5" width="43" height="19" rx="9.5" stroke="#61A180"/>
<rect x="429.5" y="79.5" width="43" height="19" rx="9.5" stroke="#E6F0EB"/>
<path d="M444.702 65V60.828H448.93V59.54H444.702V56.348H449.364V55.074H443.33V65H444.702ZM452.364 65V58.266H451.062V65H452.364ZM450.768 55.718C450.768 56.236 451.188 56.656 451.706 56.656C452.238 56.656 452.658 56.236 452.658 55.718C452.658 55.186 452.238 54.766 451.706 54.766C451.188 54.766 450.768 55.186 450.768 55.718ZM456.328 56.138H455.124V57.23C455.124 57.818 454.816 58.266 454.088 58.266H453.724V59.456H455.012V63.152C455.012 64.37 455.74 65.07 456.888 65.07C457.336 65.07 457.672 64.986 457.784 64.944V63.824C457.672 63.852 457.434 63.88 457.266 63.88C456.58 63.88 456.328 63.572 456.328 62.956V59.456H457.784V58.266H456.328V56.138Z" fill="#61A180"/>
<path d="M451.492 94V84.074H450.12V91.69L445.164 84.074H443.33V94H444.702V85.908L450.064 94H451.492ZM456.738 93.034C455.618 93.034 454.638 92.194 454.638 90.626C454.638 89.072 455.618 88.232 456.738 88.232C457.858 88.232 458.838 89.072 458.838 90.626C458.838 92.194 457.858 93.034 456.738 93.034ZM456.738 87.056C454.722 87.056 453.294 88.582 453.294 90.626C453.294 92.684 454.722 94.21 456.738 94.21C458.754 94.21 460.182 92.684 460.182 90.626C460.182 88.582 458.754 87.056 456.738 87.056Z" fill="#E6F0EB"/>
<path d="M375.5 53C385.65 53 395.389 57.0079 402.599 64.1519C409.808 71.2958 413.905 80.9978 413.998 91.147C414.091 101.296 410.173 111.072 403.095 118.347C396.018 125.622 386.354 129.807 376.206 129.994C366.058 130.18 356.247 126.351 348.907 119.34C341.568 112.33 337.294 102.705 337.015 92.5587C336.735 82.4129 340.474 72.5673 347.417 65.1638C354.36 57.7603 363.946 53.398 374.088 53.0259L374.399 61.4787C366.484 61.769 359.004 65.173 353.587 70.9499C348.169 76.7268 345.252 84.4093 345.47 92.3261C345.688 100.243 349.023 107.753 354.75 113.224C360.477 118.694 368.132 121.682 376.051 121.536C383.969 121.391 391.51 118.125 397.033 112.448C402.555 106.772 405.613 99.1441 405.54 91.2246C405.468 83.3051 402.271 75.7347 396.645 70.1603C391.019 64.5859 383.42 61.4585 375.5 61.4585L375.5 53Z" fill="#61A180"/>
<path d="M115.414 627.477L115.414 616.492" stroke="black" stroke-width="1.5" stroke-linecap="round" stroke-linejoin="round"/>
<path d="M109.922 621.984L115.414 616.492L120.906 621.984" stroke="black" stroke-width="1.5" stroke-linecap="round" stroke-linejoin="round"/>
<path d="M113.056 643H114.328L110.944 634.492H109.588L106.204 643H107.464L108.364 640.624H112.132L113.056 643ZM110.236 635.716L111.712 639.532H108.784L110.236 635.716ZM116.559 643V642.16C116.919 642.784 117.579 643.156 118.431 643.156C120.147 643.156 121.119 641.8 121.119 640.084C121.119 638.404 120.219 637.06 118.467 637.06C117.507 637.06 116.835 637.528 116.559 638.044V634.312H115.443V643H116.559ZM119.967 640.084C119.967 641.332 119.295 642.148 118.263 642.148C117.267 642.148 116.547 641.332 116.547 640.084C116.547 638.836 117.267 638.056 118.263 638.056C119.307 638.056 119.967 638.836 119.967 640.084ZM125.136 642.172C124.176 642.172 123.336 641.452 123.336 640.108C123.336 638.776 124.176 638.056 125.136 638.056C126.096 638.056 126.936 638.776 126.936 640.108C126.936 641.452 126.096 642.172 125.136 642.172ZM125.136 637.048C123.408 637.048 122.184 638.356 122.184 640.108C122.184 641.872 123.408 643.18 125.136 643.18C126.864 643.18 128.088 641.872 128.088 640.108C128.088 638.356 126.864 637.048 125.136 637.048ZM134.466 637.228H133.254L131.598 641.68L129.954 637.228H128.682L131.022 643H132.162L134.466 637.228ZM136.287 639.52C136.335 638.776 136.911 638.044 137.859 638.044C138.879 638.044 139.419 638.692 139.443 639.52H136.287ZM139.611 641.02C139.395 641.668 138.927 642.184 137.991 642.184C137.019 642.184 136.275 641.464 136.251 640.432H140.595C140.607 640.36 140.619 640.216 140.619 640.072C140.619 638.272 139.623 637.048 137.847 637.048C136.395 637.048 135.087 638.284 135.087 640.096C135.087 642.052 136.443 643.18 137.991 643.18C139.335 643.18 140.259 642.376 140.583 641.356L139.611 641.02ZM144.673 641.452C144.673 642.364 145.429 643.18 146.605 643.18C147.637 643.18 148.213 642.628 148.465 642.22C148.465 642.64 148.501 642.856 148.525 643H149.629C149.605 642.856 149.557 642.556 149.557 642.052V639.16C149.557 638.032 148.885 637.048 147.157 637.048C145.909 637.048 144.913 637.816 144.793 638.92L145.873 639.172C145.945 638.5 146.389 638.008 147.181 638.008C148.057 638.008 148.429 638.476 148.429 639.04C148.429 639.244 148.333 639.424 147.985 639.472L146.425 639.7C145.429 639.844 144.673 640.42 144.673 641.452ZM146.761 642.232C146.185 642.232 145.825 641.824 145.825 641.392C145.825 640.876 146.185 640.6 146.665 640.528L148.429 640.264V640.528C148.429 641.788 147.685 642.232 146.761 642.232ZM156.333 637.228H155.121L153.465 641.68L151.821 637.228H150.549L152.889 643H154.029L156.333 637.228ZM158.154 639.52C158.202 638.776 158.778 638.044 159.726 638.044C160.746 638.044 161.286 638.692 161.31 639.52H158.154ZM161.478 641.02C161.262 641.668 160.794 642.184 159.858 642.184C158.886 642.184 158.142 641.464 158.118 640.432H162.462C162.474 640.36 162.486 640.216 162.486 640.072C162.486 638.272 161.49 637.048 159.714 637.048C158.262 637.048 156.954 638.284 156.954 640.096C156.954 642.052 158.31 643.18 159.858 643.18C161.202 643.18 162.126 642.376 162.45 641.356L161.478 641.02ZM167.104 637.168C167.044 637.156 166.888 637.132 166.732 637.132C166.144 637.132 165.424 637.348 165.004 638.236V637.228H163.9V643H165.028V640.108C165.028 638.836 165.664 638.332 166.612 638.332C166.768 638.332 166.936 638.344 167.104 638.368V637.168ZM167.876 641.452C167.876 642.364 168.632 643.18 169.808 643.18C170.84 643.18 171.416 642.628 171.668 642.22C171.668 642.64 171.704 642.856 171.728 643H172.832C172.808 642.856 172.76 642.556 172.76 642.052V639.16C172.76 638.032 172.088 637.048 170.36 637.048C169.112 637.048 168.116 637.816 167.996 638.92L169.076 639.172C169.148 638.5 169.592 638.008 170.384 638.008C171.26 638.008 171.632 638.476 171.632 639.04C171.632 639.244 171.536 639.424 171.188 639.472L169.628 639.7C168.632 639.844 167.876 640.42 167.876 641.452ZM169.964 642.232C169.388 642.232 169.028 641.824 169.028 641.392C169.028 640.876 169.388 640.6 169.868 640.528L171.632 640.264V640.528C171.632 641.788 170.888 642.232 169.964 642.232ZM174.157 643.312C174.301 644.548 175.381 645.46 176.821 645.46C178.993 645.46 179.713 644.032 179.713 642.568V637.228H178.597V638.032C178.309 637.456 177.709 637.12 176.821 637.12C175.237 637.12 174.169 638.368 174.169 639.928C174.169 641.56 175.285 642.724 176.821 642.724C177.685 642.724 178.309 642.304 178.585 641.776V642.604C178.585 643.852 178.033 644.476 176.821 644.476C175.945 644.476 175.333 643.864 175.249 643.06L174.157 643.312ZM176.989 641.776C175.969 641.776 175.321 641.056 175.321 639.928C175.321 638.812 175.993 638.08 176.989 638.08C177.961 638.08 178.633 638.812 178.633 639.928C178.633 641.044 177.961 641.776 176.989 641.776ZM182.353 639.52C182.401 638.776 182.977 638.044 183.925 638.044C184.945 638.044 185.485 638.692 185.509 639.52H182.353ZM185.677 641.02C185.461 641.668 184.993 642.184 184.057 642.184C183.085 642.184 182.341 641.464 182.317 640.432H186.661C186.673 640.36 186.685 640.216 186.685 640.072C186.685 638.272 185.689 637.048 183.913 637.048C182.461 637.048 181.153 638.284 181.153 640.096C181.153 642.052 182.509 643.18 184.057 643.18C185.401 643.18 186.325 642.376 186.649 641.356L185.677 641.02ZM190.667 641.5C190.763 642.16 191.435 643.18 193.019 643.18C194.447 643.18 195.131 642.208 195.131 641.392C195.131 640.54 194.579 639.904 193.535 639.676L192.599 639.472C192.155 639.376 191.939 639.124 191.939 638.776C191.939 638.38 192.323 638.008 192.899 638.008C193.811 638.008 194.051 638.668 194.099 638.968L195.095 638.596C194.975 638.08 194.483 637.048 192.899 637.048C191.771 637.048 190.847 637.888 190.847 638.872C190.847 639.688 191.387 640.3 192.287 640.492L193.271 640.708C193.751 640.816 194.015 641.092 194.015 641.452C194.015 641.86 193.667 642.22 193.031 642.22C192.215 642.22 191.759 641.74 191.687 641.14L190.667 641.5ZM199.104 638.092C200.088 638.092 200.508 638.752 200.652 639.316L201.672 638.884C201.432 638.008 200.64 637.048 199.104 637.048C197.46 637.048 196.2 638.308 196.2 640.108C196.2 641.86 197.436 643.18 199.116 643.18C200.616 643.18 201.444 642.208 201.72 641.38L200.724 640.948C200.592 641.404 200.196 642.136 199.116 642.136C198.18 642.136 197.352 641.428 197.352 640.108C197.352 638.764 198.192 638.092 199.104 638.092ZM205.621 642.172C204.661 642.172 203.821 641.452 203.821 640.108C203.821 638.776 204.661 638.056 205.621 638.056C206.581 638.056 207.421 638.776 207.421 640.108C207.421 641.452 206.581 642.172 205.621 642.172ZM205.621 637.048C203.893 637.048 202.669 638.356 202.669 640.108C202.669 641.872 203.893 643.18 205.621 643.18C207.349 643.18 208.573 641.872 208.573 640.108C208.573 638.356 207.349 637.048 205.621 637.048ZM213.218 637.168C213.158 637.156 213.002 637.132 212.846 637.132C212.258 637.132 211.538 637.348 211.118 638.236V637.228H210.014V643H211.142V640.108C211.142 638.836 211.778 638.332 212.726 638.332C212.882 638.332 213.05 638.344 213.218 638.368V637.168ZM215.083 639.52C215.131 638.776 215.707 638.044 216.655 638.044C217.675 638.044 218.215 638.692 218.239 639.52H215.083ZM218.407 641.02C218.191 641.668 217.723 642.184 216.787 642.184C215.815 642.184 215.071 641.464 215.047 640.432H219.391C219.403 640.36 219.415 640.216 219.415 640.072C219.415 638.272 218.419 637.048 216.643 637.048C215.191 637.048 213.883 638.284 213.883 640.096C213.883 642.052 215.239 643.18 216.787 643.18C218.131 643.18 219.055 642.376 219.379 641.356L218.407 641.02Z" fill="#595959"/>
<g opacity="0.8">
<rect x="80" y="626" width="8.23846" height="16.6769" rx="0.784615" fill="#A9A8A8"/>
</g>
<rect x="91" y="611.077" width="8.23846" height="31.5846" rx="0.784615" fill="#61A180"/>
<g filter="url(#filter1_d_545_1482)">
<rect x="14" y="201" width="535" height="386" rx="18" fill="white"/>
</g>
<path d="M14 219C14 209.059 22.0589 201 32 201H531C540.941 201 549 209.059 549 219V252H14V219Z" fill="#F2F7F5"/>
<path d="M54.8 223.04C54.48 221.5 53.2 219.52 50 219.52C47.38 219.52 45.32 221.52 45.32 223.74C45.32 225.86 46.76 227.18 48.78 227.62L50.8 228.06C52.22 228.36 52.92 229.24 52.92 230.26C52.92 231.5 51.96 232.52 50 232.52C47.86 232.52 46.74 231.06 46.6 229.48L44.72 230.08C44.98 232.1 46.6 234.3 50.02 234.3C53.04 234.3 54.92 232.3 54.92 230.1C54.92 228.12 53.6 226.64 51.24 226.12L49.12 225.66C47.92 225.4 47.3 224.62 47.3 223.6C47.3 222.28 48.44 221.24 50.04 221.24C52.02 221.24 52.88 222.64 53.04 223.66L54.8 223.04ZM66.015 224.38H63.415L59.255 228.64V219.52H57.395V234H59.255V231.1L60.595 229.76L63.735 234H66.095L61.915 228.44L66.015 224.38ZM69.7823 234V224.38H67.9223V234H69.7823ZM67.5023 220.74C67.5023 221.48 68.1023 222.08 68.8423 222.08C69.6023 222.08 70.2023 221.48 70.2023 220.74C70.2023 219.98 69.6023 219.38 68.8423 219.38C68.1023 219.38 67.5023 219.98 67.5023 220.74ZM74.7047 234V219.52H72.8247V234H74.7047ZM79.6266 234V219.52H77.7466V234H79.6266ZM96.9875 223.04C96.6675 221.5 95.3875 219.52 92.1875 219.52C89.5675 219.52 87.5075 221.52 87.5075 223.74C87.5075 225.86 88.9475 227.18 90.9675 227.62L92.9875 228.06C94.4075 228.36 95.1075 229.24 95.1075 230.26C95.1075 231.5 94.1475 232.52 92.1875 232.52C90.0475 232.52 88.9275 231.06 88.7875 229.48L86.9075 230.08C87.1675 232.1 88.7875 234.3 92.2075 234.3C95.2275 234.3 97.1075 232.3 97.1075 230.1C97.1075 228.12 95.7875 226.64 93.4275 226.12L91.3075 225.66C90.1075 225.4 89.4875 224.62 89.4875 223.6C89.4875 222.28 90.6275 221.24 92.2275 221.24C94.2075 221.24 95.0675 222.64 95.2275 223.66L96.9875 223.04ZM103.783 225.82C105.423 225.82 106.123 226.92 106.363 227.86L108.062 227.14C107.663 225.68 106.343 224.08 103.783 224.08C101.043 224.08 98.9425 226.18 98.9425 229.18C98.9425 232.1 101.002 234.3 103.803 234.3C106.303 234.3 107.683 232.68 108.143 231.3L106.483 230.58C106.263 231.34 105.603 232.56 103.803 232.56C102.243 232.56 100.863 231.38 100.863 229.18C100.863 226.94 102.263 225.82 103.783 225.82ZM114.644 232.62C113.044 232.62 111.644 231.42 111.644 229.18C111.644 226.96 113.044 225.76 114.644 225.76C116.244 225.76 117.644 226.96 117.644 229.18C117.644 231.42 116.244 232.62 114.644 232.62ZM114.644 224.08C111.764 224.08 109.724 226.26 109.724 229.18C109.724 232.12 111.764 234.3 114.644 234.3C117.524 234.3 119.564 232.12 119.564 229.18C119.564 226.26 117.524 224.08 114.644 224.08ZM127.305 224.28C127.205 224.26 126.945 224.22 126.685 224.22C125.705 224.22 124.505 224.58 123.805 226.06V224.38H121.965V234H123.845V229.18C123.845 227.06 124.905 226.22 126.485 226.22C126.745 226.22 127.025 226.24 127.305 226.28V224.28ZM130.415 228.2C130.495 226.96 131.455 225.74 133.035 225.74C134.735 225.74 135.635 226.82 135.675 228.2H130.415ZM135.955 230.7C135.595 231.78 134.815 232.64 133.255 232.64C131.635 232.64 130.395 231.44 130.355 229.72H137.595C137.615 229.6 137.635 229.36 137.635 229.12C137.635 226.12 135.975 224.08 133.015 224.08C130.595 224.08 128.415 226.14 128.415 229.16C128.415 232.42 130.675 234.3 133.255 234.3C135.495 234.3 137.035 232.96 137.575 231.26L135.955 230.7ZM154.686 234H156.806L151.166 219.82H148.906L143.266 234H145.366L146.866 230.04H153.146L154.686 234ZM149.986 221.86L152.446 228.22H147.566L149.986 221.86ZM166.619 224.38H164.599L161.839 231.8L159.099 224.38H156.979L160.879 234H162.779L166.619 224.38ZM169.653 228.2C169.733 226.96 170.693 225.74 172.273 225.74C173.973 225.74 174.873 226.82 174.913 228.2H169.653ZM175.193 230.7C174.833 231.78 174.053 232.64 172.493 232.64C170.873 232.64 169.633 231.44 169.593 229.72H176.833C176.853 229.6 176.873 229.36 176.873 229.12C176.873 226.12 175.213 224.08 172.253 224.08C169.833 224.08 167.653 226.14 167.653 229.16C167.653 232.42 169.913 234.3 172.493 234.3C174.733 234.3 176.273 232.96 176.813 231.26L175.193 230.7ZM184.571 224.28C184.471 224.26 184.211 224.22 183.951 224.22C182.971 224.22 181.771 224.58 181.071 226.06V224.38H179.231V234H181.111V229.18C181.111 227.06 182.171 226.22 183.751 226.22C184.011 226.22 184.291 226.24 184.571 226.28V224.28ZM185.857 231.42C185.857 232.94 187.117 234.3 189.077 234.3C190.797 234.3 191.757 233.38 192.177 232.7C192.177 233.4 192.237 233.76 192.277 234H194.117C194.077 233.76 193.997 233.26 193.997 232.42V227.6C193.997 225.72 192.877 224.08 189.997 224.08C187.917 224.08 186.257 225.36 186.057 227.2L187.857 227.62C187.977 226.5 188.717 225.68 190.037 225.68C191.497 225.68 192.117 226.46 192.117 227.4C192.117 227.74 191.957 228.04 191.377 228.12L188.777 228.5C187.117 228.74 185.857 229.7 185.857 231.42ZM189.337 232.72C188.377 232.72 187.777 232.04 187.777 231.32C187.777 230.46 188.377 230 189.177 229.88L192.117 229.44V229.88C192.117 231.98 190.877 232.72 189.337 232.72ZM196.325 234.52C196.565 236.58 198.365 238.1 200.765 238.1C204.385 238.1 205.585 235.72 205.585 233.28V224.38H203.725V225.72C203.245 224.76 202.245 224.2 200.765 224.2C198.125 224.2 196.345 226.28 196.345 228.88C196.345 231.6 198.205 233.54 200.765 233.54C202.205 233.54 203.245 232.84 203.705 231.96V233.34C203.705 235.42 202.785 236.46 200.765 236.46C199.305 236.46 198.285 235.44 198.145 234.1L196.325 234.52ZM201.045 231.96C199.345 231.96 198.265 230.76 198.265 228.88C198.265 227.02 199.385 225.8 201.045 225.8C202.665 225.8 203.785 227.02 203.785 228.88C203.785 230.74 202.665 231.96 201.045 231.96ZM209.985 228.2C210.065 226.96 211.025 225.74 212.605 225.74C214.305 225.74 215.205 226.82 215.245 228.2H209.985ZM215.525 230.7C215.165 231.78 214.385 232.64 212.825 232.64C211.205 232.64 209.965 231.44 209.925 229.72H217.165C217.185 229.6 217.205 229.36 217.205 229.12C217.205 226.12 215.545 224.08 212.585 224.08C210.165 224.08 207.985 226.14 207.985 229.16C207.985 232.42 210.245 234.3 212.825 234.3C215.065 234.3 216.605 232.96 217.145 231.26L215.525 230.7ZM218.803 231.5C218.963 232.6 220.083 234.3 222.723 234.3C225.103 234.3 226.243 232.68 226.243 231.32C226.243 229.9 225.323 228.84 223.583 228.46L222.023 228.12C221.283 227.96 220.923 227.54 220.923 226.96C220.923 226.3 221.563 225.68 222.523 225.68C224.043 225.68 224.443 226.78 224.523 227.28L226.183 226.66C225.983 225.8 225.163 224.08 222.523 224.08C220.643 224.08 219.103 225.48 219.103 227.12C219.103 228.48 220.003 229.5 221.503 229.82L223.143 230.18C223.943 230.36 224.383 230.82 224.383 231.42C224.383 232.1 223.803 232.7 222.743 232.7C221.383 232.7 220.623 231.9 220.503 230.9L218.803 231.5Z" fill="#191818"/>
<path d="M77.982 327.178C76.574 327.178 75.65 326.276 75.65 325.088C75.65 324.01 76.53 323.064 77.982 323.064C79.434 323.064 80.336 324.01 80.336 325.088C80.336 326.276 79.412 327.178 77.982 327.178ZM77.982 333.602C76.266 333.602 75.32 332.59 75.32 331.424C75.32 330.258 76.266 329.224 77.982 329.224C79.72 329.224 80.666 330.258 80.666 331.424C80.666 332.59 79.72 333.602 77.982 333.602ZM77.982 335.824C81.26 335.824 83.284 334.064 83.284 331.688C83.284 330.06 82.14 328.718 80.644 328.19C82.008 327.684 82.954 326.32 82.954 324.934C82.954 322.558 80.842 320.908 77.982 320.908C75.122 320.908 73.032 322.558 73.032 324.934C73.032 326.342 73.978 327.684 75.342 328.19C73.824 328.718 72.702 330.06 72.702 331.688C72.702 334.064 74.726 335.824 77.982 335.824ZM87.6443 328.366C87.6443 325.286 88.5683 323.24 90.8563 323.24C93.1223 323.24 94.0463 325.264 94.0463 328.366C94.0463 331.468 93.1223 333.492 90.8563 333.492C88.5903 333.492 87.6443 331.468 87.6443 328.366ZM85.0263 328.366C85.0263 332.04 86.4783 335.824 90.8563 335.824C95.2123 335.824 96.6643 332.04 96.6643 328.366C96.6643 324.714 95.2123 320.908 90.8563 320.908C86.4783 320.908 85.0263 324.692 85.0263 328.366ZM100.053 324.582C100.053 323.636 100.735 322.976 101.615 322.976C102.495 322.976 103.155 323.636 103.155 324.582C103.155 325.528 102.495 326.21 101.615 326.21C100.735 326.21 100.053 325.528 100.053 324.582ZM98.0073 324.582C98.0073 326.562 99.6573 328.102 101.593 328.102C103.551 328.102 105.223 326.584 105.223 324.582C105.223 322.602 103.551 321.04 101.615 321.04C99.6573 321.04 98.0073 322.602 98.0073 324.582ZM109.249 332.172C109.249 331.226 109.931 330.566 110.811 330.566C111.691 330.566 112.351 331.226 112.351 332.172C112.351 333.118 111.691 333.8 110.811 333.8C109.931 333.8 109.249 333.118 109.249 332.172ZM107.203 332.172C107.203 334.152 108.853 335.692 110.789 335.692C112.747 335.692 114.419 334.174 114.419 332.172C114.419 330.192 112.747 328.63 110.811 328.63C108.853 328.63 107.203 330.192 107.203 332.172ZM102.297 335.494L112.439 321.238H110.151L99.9873 335.494H102.297Z" fill="#191818"/>
<path d="M74.3367 347.428C74.1447 346.504 73.3767 345.316 71.4567 345.316C69.8847 345.316 68.6487 346.516 68.6487 347.848C68.6487 349.12 69.5127 349.912 70.7247 350.176L71.9367 350.44C72.7887 350.62 73.2087 351.148 73.2087 351.76C73.2087 352.504 72.6327 353.116 71.4567 353.116C70.1727 353.116 69.5007 352.24 69.4167 351.292L68.2887 351.652C68.4447 352.864 69.4167 354.184 71.4687 354.184C73.2807 354.184 74.4087 352.984 74.4087 351.664C74.4087 350.476 73.6167 349.588 72.2007 349.276L70.9287 349C70.2087 348.844 69.8367 348.376 69.8367 347.764C69.8367 346.972 70.5207 346.348 71.4807 346.348C72.6687 346.348 73.1847 347.188 73.2807 347.8L74.3367 347.428ZM81.0657 348.232H79.5057L77.0097 350.788V345.316H75.8937V354.004H77.0097V352.264L77.8137 351.46L79.6977 354.004H81.1137L78.6057 350.668L81.0657 348.232ZM83.3261 354.004V348.232H82.2101V354.004H83.3261ZM81.9581 346.048C81.9581 346.492 82.3181 346.852 82.7621 346.852C83.2181 346.852 83.5781 346.492 83.5781 346.048C83.5781 345.592 83.2181 345.232 82.7621 345.232C82.3181 345.232 81.9581 345.592 81.9581 346.048ZM86.2795 354.004V345.316H85.1515V354.004H86.2795ZM89.2326 354.004V345.316H88.1046V354.004H89.2326ZM99.6492 347.428C99.4572 346.504 98.6892 345.316 96.7692 345.316C95.1972 345.316 93.9612 346.516 93.9612 347.848C93.9612 349.12 94.8252 349.912 96.0372 350.176L97.2492 350.44C98.1012 350.62 98.5212 351.148 98.5212 351.76C98.5212 352.504 97.9452 353.116 96.7692 353.116C95.4852 353.116 94.8132 352.24 94.7292 351.292L93.6012 351.652C93.7572 352.864 94.7292 354.184 96.7812 354.184C98.5932 354.184 99.7212 352.984 99.7212 351.664C99.7212 350.476 98.9292 349.588 97.5132 349.276L96.2412 349C95.5212 348.844 95.1492 348.376 95.1492 347.764C95.1492 346.972 95.8332 346.348 96.7932 346.348C97.9812 346.348 98.4972 347.188 98.5932 347.8L99.6492 347.428ZM103.726 349.096C104.71 349.096 105.13 349.756 105.274 350.32L106.294 349.888C106.054 349.012 105.262 348.052 103.726 348.052C102.082 348.052 100.822 349.312 100.822 351.112C100.822 352.864 102.058 354.184 103.738 354.184C105.238 354.184 106.066 353.212 106.342 352.384L105.346 351.952C105.214 352.408 104.818 353.14 103.738 353.14C102.802 353.14 101.974 352.432 101.974 351.112C101.974 349.768 102.814 349.096 103.726 349.096ZM110.243 353.176C109.283 353.176 108.443 352.456 108.443 351.112C108.443 349.78 109.283 349.06 110.243 349.06C111.203 349.06 112.043 349.78 112.043 351.112C112.043 352.456 111.203 353.176 110.243 353.176ZM110.243 348.052C108.515 348.052 107.291 349.36 107.291 351.112C107.291 352.876 108.515 354.184 110.243 354.184C111.971 354.184 113.195 352.876 113.195 351.112C113.195 349.36 111.971 348.052 110.243 348.052ZM117.84 348.172C117.78 348.16 117.624 348.136 117.468 348.136C116.88 348.136 116.16 348.352 115.74 349.24V348.232H114.636V354.004H115.764V351.112C115.764 349.84 116.4 349.336 117.348 349.336C117.504 349.336 117.672 349.348 117.84 349.372V348.172ZM119.706 350.524C119.754 349.78 120.33 349.048 121.278 349.048C122.298 349.048 122.838 349.696 122.862 350.524H119.706ZM123.03 352.024C122.814 352.672 122.346 353.188 121.41 353.188C120.438 353.188 119.694 352.468 119.67 351.436H124.014C124.026 351.364 124.038 351.22 124.038 351.076C124.038 349.276 123.042 348.052 121.266 348.052C119.814 348.052 118.506 349.288 118.506 351.1C118.506 353.056 119.862 354.184 121.41 354.184C122.754 354.184 123.678 353.38 124.002 352.36L123.03 352.024Z" fill="#595959"/>
<circle opacity="0.1" cx="95.5769" cy="333.46" r="51.5769" stroke="#61A180" stroke-width="4.83775"/>
<path d="M44.0063 333.46C44.0063 344.355 47.4565 354.97 53.8621 363.784C60.2678 372.597 69.2999 379.155 79.663 382.518C90.0262 385.881 101.188 385.876 111.548 382.504C121.908 379.131 130.934 372.564 137.332 363.745C143.73 354.926 147.17 344.308 147.16 333.412C147.15 322.517 143.69 311.905 137.276 303.098C130.863 294.29 121.825 287.74 111.458 284.387C101.092 281.033 89.9301 281.049 79.5731 284.431" stroke="#61A180" stroke-width="4.83775"/>
<circle opacity="0.1" cx="281.249" cy="333.836" r="51.5769" stroke="#61A180" stroke-width="4.83775"/>
<path d="M261.529 335.385C262.255 335.869 263.663 336.199 264.829 336.199C269.669 336.199 272.133 333.119 272.133 327.949C272.133 323.395 269.471 321.283 266.501 321.283C263.509 321.283 261.133 323.307 261.133 326.255C261.133 329.291 263.487 331.051 266.061 331.051C267.755 331.051 269.009 330.325 269.537 329.401C269.405 332.085 267.799 333.889 264.807 333.889C263.861 333.889 262.805 333.581 262.255 333.229L261.529 335.385ZM269.185 326.167C269.185 327.795 267.887 328.829 266.457 328.829C264.983 328.829 263.729 327.839 263.729 326.167C263.729 324.561 265.005 323.527 266.457 323.527C267.887 323.527 269.185 324.583 269.185 326.167ZM277.895 329.401C278.115 329.291 278.555 329.159 279.237 329.159C280.447 329.159 281.767 329.863 281.767 331.513C281.767 332.811 280.799 333.933 279.061 333.933C277.477 333.933 276.289 332.811 276.223 331.161L273.649 331.689C273.825 334.065 275.783 336.199 279.083 336.199C282.471 336.199 284.429 333.977 284.429 331.535C284.429 328.785 282.295 327.245 280.161 327.201L284.033 323.813V321.613H274.133V323.923H280.623L276.685 327.443L277.895 329.401ZM287.822 324.957C287.822 324.011 288.504 323.351 289.384 323.351C290.264 323.351 290.924 324.011 290.924 324.957C290.924 325.903 290.264 326.585 289.384 326.585C288.504 326.585 287.822 325.903 287.822 324.957ZM285.776 324.957C285.776 326.937 287.426 328.477 289.362 328.477C291.32 328.477 292.992 326.959 292.992 324.957C292.992 322.977 291.32 321.415 289.384 321.415C287.426 321.415 285.776 322.977 285.776 324.957ZM297.018 332.547C297.018 331.601 297.7 330.941 298.58 330.941C299.46 330.941 300.12 331.601 300.12 332.547C300.12 333.493 299.46 334.175 298.58 334.175C297.7 334.175 297.018 333.493 297.018 332.547ZM294.972 332.547C294.972 334.527 296.622 336.067 298.558 336.067C300.516 336.067 302.188 334.549 302.188 332.547C302.188 330.567 300.516 329.005 298.58 329.005C296.622 329.005 294.972 330.567 294.972 332.547ZM290.066 335.869L300.208 321.613H297.92L287.756 335.869H290.066Z" fill="#191818"/>
<path d="M262.771 354V345.492H261.199L258.175 352.416L255.175 345.492H253.579V354H254.743V347.376L257.623 354H258.703L261.607 347.376V354H262.771ZM267.263 353.172C266.303 353.172 265.463 352.452 265.463 351.108C265.463 349.776 266.303 349.056 267.263 349.056C268.223 349.056 269.063 349.776 269.063 351.108C269.063 352.452 268.223 353.172 267.263 353.172ZM267.263 348.048C265.535 348.048 264.311 349.356 264.311 351.108C264.311 352.872 265.535 354.18 267.263 354.18C268.991 354.18 270.215 352.872 270.215 351.108C270.215 349.356 268.991 348.048 267.263 348.048ZM273.134 346.404H272.102V347.34C272.102 347.844 271.838 348.228 271.214 348.228H270.902V349.248H272.006V352.416C272.006 353.46 272.63 354.06 273.614 354.06C273.998 354.06 274.286 353.988 274.382 353.952V352.992C274.286 353.016 274.082 353.04 273.938 353.04C273.35 353.04 273.134 352.776 273.134 352.248V349.248H274.382V348.228H273.134V346.404ZM276.839 354V348.228H275.723V354H276.839ZM275.471 346.044C275.471 346.488 275.831 346.848 276.275 346.848C276.731 346.848 277.091 346.488 277.091 346.044C277.091 345.588 276.731 345.228 276.275 345.228C275.831 345.228 275.471 345.588 275.471 346.044ZM283.8 348.228H282.588L280.932 352.68L279.288 348.228H278.016L280.356 354H281.496L283.8 348.228ZM284.432 352.452C284.432 353.364 285.188 354.18 286.364 354.18C287.396 354.18 287.972 353.628 288.224 353.22C288.224 353.64 288.26 353.856 288.284 354H289.388C289.364 353.856 289.316 353.556 289.316 353.052V350.16C289.316 349.032 288.644 348.048 286.916 348.048C285.668 348.048 284.672 348.816 284.552 349.92L285.632 350.172C285.704 349.5 286.148 349.008 286.94 349.008C287.816 349.008 288.188 349.476 288.188 350.04C288.188 350.244 288.092 350.424 287.744 350.472L286.184 350.7C285.188 350.844 284.432 351.42 284.432 352.452ZM286.52 353.232C285.944 353.232 285.584 352.824 285.584 352.392C285.584 351.876 285.944 351.6 286.424 351.528L288.188 351.264V351.528C288.188 352.788 287.444 353.232 286.52 353.232ZM292.623 346.404H291.591V347.34C291.591 347.844 291.327 348.228 290.703 348.228H290.391V349.248H291.495V352.416C291.495 353.46 292.119 354.06 293.103 354.06C293.487 354.06 293.775 353.988 293.871 353.952V352.992C293.775 353.016 293.571 353.04 293.427 353.04C292.839 353.04 292.623 352.776 292.623 352.248V349.248H293.871V348.228H292.623V346.404ZM296.327 354V348.228H295.211V354H296.327ZM294.959 346.044C294.959 346.488 295.319 346.848 295.763 346.848C296.219 346.848 296.579 346.488 296.579 346.044C296.579 345.588 296.219 345.228 295.763 345.228C295.319 345.228 294.959 345.588 294.959 346.044ZM300.72 353.172C299.76 353.172 298.92 352.452 298.92 351.108C298.92 349.776 299.76 349.056 300.72 349.056C301.68 349.056 302.52 349.776 302.52 351.108C302.52 352.452 301.68 353.172 300.72 353.172ZM300.72 348.048C298.992 348.048 297.768 349.356 297.768 351.108C297.768 352.872 298.992 354.18 300.72 354.18C302.448 354.18 303.672 352.872 303.672 351.108C303.672 349.356 302.448 348.048 300.72 348.048ZM306.241 350.664C306.241 349.788 306.697 349.08 307.585 349.08C308.593 349.08 308.929 349.728 308.929 350.532V354H310.057V350.34C310.057 349.056 309.373 348.06 307.993 348.06C307.321 348.06 306.637 348.336 306.217 349.056V348.228H305.113V354H306.241V350.664ZM272.466 361.424C272.274 360.5 271.506 359.312 269.586 359.312C268.014 359.312 266.778 360.512 266.778 361.844C266.778 363.116 267.642 363.908 268.854 364.172L270.066 364.436C270.918 364.616 271.338 365.144 271.338 365.756C271.338 366.5 270.762 367.112 269.586 367.112C268.302 367.112 267.63 366.236 267.546 365.288L266.418 365.648C266.574 366.86 267.546 368.18 269.598 368.18C271.41 368.18 272.538 366.98 272.538 365.66C272.538 364.472 271.746 363.584 270.33 363.272L269.058 362.996C268.338 362.84 267.966 362.372 267.966 361.76C267.966 360.968 268.65 360.344 269.61 360.344C270.798 360.344 271.314 361.184 271.41 361.796L272.466 361.424ZM276.543 363.092C277.527 363.092 277.947 363.752 278.091 364.316L279.111 363.884C278.871 363.008 278.079 362.048 276.543 362.048C274.899 362.048 273.639 363.308 273.639 365.108C273.639 366.86 274.875 368.18 276.555 368.18C278.055 368.18 278.883 367.208 279.159 366.38L278.163 365.948C278.031 366.404 277.635 367.136 276.555 367.136C275.619 367.136 274.791 366.428 274.791 365.108C274.791 363.764 275.631 363.092 276.543 363.092ZM283.06 367.172C282.1 367.172 281.26 366.452 281.26 365.108C281.26 363.776 282.1 363.056 283.06 363.056C284.02 363.056 284.86 363.776 284.86 365.108C284.86 366.452 284.02 367.172 283.06 367.172ZM283.06 362.048C281.332 362.048 280.108 363.356 280.108 365.108C280.108 366.872 281.332 368.18 283.06 368.18C284.788 368.18 286.012 366.872 286.012 365.108C286.012 363.356 284.788 362.048 283.06 362.048ZM290.657 362.168C290.597 362.156 290.441 362.132 290.285 362.132C289.697 362.132 288.977 362.348 288.557 363.236V362.228H287.453V368H288.581V365.108C288.581 363.836 289.217 363.332 290.165 363.332C290.321 363.332 290.489 363.344 290.657 363.368V362.168ZM292.523 364.52C292.571 363.776 293.147 363.044 294.095 363.044C295.115 363.044 295.655 363.692 295.679 364.52H292.523ZM295.847 366.02C295.631 366.668 295.163 367.184 294.227 367.184C293.255 367.184 292.511 366.464 292.487 365.432H296.831C296.843 365.36 296.855 365.216 296.855 365.072C296.855 363.272 295.859 362.048 294.083 362.048C292.631 362.048 291.323 363.284 291.323 365.096C291.323 367.052 292.679 368.18 294.227 368.18C295.571 368.18 296.495 367.376 296.819 366.356L295.847 366.02Z" fill="#595959"/>
<path d="M247.38 295.457C256.834 286.969 269.088 282.269 281.793 282.259C294.499 282.248 306.76 286.927 316.229 295.399C325.697 303.871 331.705 315.539 333.101 328.168C334.497 340.796 331.183 353.495 323.795 363.83C316.406 374.166 305.463 381.411 293.062 384.176C280.662 386.941 267.677 385.032 256.597 378.815C245.517 372.598 237.122 362.51 233.021 350.485C229.668 340.654 229.378 330.093 232.101 320.178C232.708 317.966 233.466 315.786 234.372 313.653" stroke="#61A180" stroke-width="4.83775"/>
<circle opacity="0.1" cx="465.815" cy="336.035" r="51.5769" stroke="#61A180" stroke-width="4.83775"/>
<path d="M456.1 324.186C455.484 323.79 454.384 323.482 453.064 323.482C448.642 323.482 445.408 326.606 445.408 331.776C445.408 335.428 447.476 338.398 451.106 338.398C454.098 338.398 456.518 336.418 456.518 333.448C456.518 330.522 454.516 328.63 451.678 328.63C450.16 328.63 448.796 329.18 448.048 330.324C448.29 327.552 450.226 325.77 452.91 325.77C454.076 325.77 454.824 326.056 455.352 326.342L456.1 324.186ZM448.334 333.492C448.334 331.82 449.61 330.83 451.106 330.83C452.602 330.83 453.878 331.82 453.878 333.492C453.878 335.142 452.602 336.154 451.106 336.154C449.654 336.154 448.334 335.12 448.334 333.492ZM468.306 323.812H457.658V326.122H465.314C465.314 326.122 460.342 330.104 459.726 338.068H462.454C463.092 330.72 467.118 327.112 468.306 326.122V323.812ZM471.063 327.156C471.063 326.21 471.745 325.55 472.625 325.55C473.505 325.55 474.165 326.21 474.165 327.156C474.165 328.102 473.505 328.784 472.625 328.784C471.745 328.784 471.063 328.102 471.063 327.156ZM469.017 327.156C469.017 329.136 470.667 330.676 472.603 330.676C474.561 330.676 476.233 329.158 476.233 327.156C476.233 325.176 474.561 323.614 472.625 323.614C470.667 323.614 469.017 325.176 469.017 327.156ZM480.259 334.746C480.259 333.8 480.941 333.14 481.821 333.14C482.701 333.14 483.361 333.8 483.361 334.746C483.361 335.692 482.701 336.374 481.821 336.374C480.941 336.374 480.259 335.692 480.259 334.746ZM478.213 334.746C478.213 336.726 479.863 338.266 481.799 338.266C483.757 338.266 485.429 336.748 485.429 334.746C485.429 332.766 483.757 331.204 481.821 331.204C479.863 331.204 478.213 332.766 478.213 334.746ZM473.307 338.068L483.449 323.812H481.161L470.997 338.068H473.307Z" fill="#191818"/>
<path d="M435.777 356.18C437.733 356.18 439.077 355.04 439.533 353.444L438.489 353.06C438.141 354.224 437.229 355.1 435.777 355.1C434.229 355.1 432.753 353.96 432.753 351.74C432.753 349.52 434.229 348.392 435.777 348.392C437.169 348.392 438.105 349.112 438.429 350.396L439.521 350.012C439.089 348.368 437.721 347.312 435.777 347.312C433.665 347.312 431.553 348.896 431.553 351.74C431.553 354.584 433.581 356.18 435.777 356.18ZM444.657 355.304C444.657 355.544 444.681 355.868 444.705 356H445.785C445.761 355.796 445.725 355.388 445.725 354.932V350.228H444.597V353.708C444.597 354.584 444.141 355.184 443.229 355.184C442.281 355.184 441.921 354.488 441.921 353.696V350.228H440.793V353.864C440.793 355.172 441.609 356.18 442.953 356.18C443.625 356.18 444.345 355.904 444.657 355.304ZM448.685 356V347.312H447.557V356H448.685ZM452.082 348.404H451.05V349.34C451.05 349.844 450.786 350.228 450.162 350.228H449.85V351.248H450.954V354.416C450.954 355.46 451.578 356.06 452.562 356.06C452.946 356.06 453.234 355.988 453.33 355.952V354.992C453.234 355.016 453.03 355.04 452.886 355.04C452.298 355.04 452.082 354.776 452.082 354.248V351.248H453.33V350.228H452.082V348.404ZM458.474 355.304C458.474 355.544 458.498 355.868 458.522 356H459.602C459.578 355.796 459.542 355.388 459.542 354.932V350.228H458.414V353.708C458.414 354.584 457.958 355.184 457.046 355.184C456.098 355.184 455.738 354.488 455.738 353.696V350.228H454.61V353.864C454.61 355.172 455.426 356.18 456.77 356.18C457.442 356.18 458.162 355.904 458.474 355.304ZM464.577 350.168C464.517 350.156 464.361 350.132 464.205 350.132C463.617 350.132 462.897 350.348 462.477 351.236V350.228H461.373V356H462.501V353.108C462.501 351.836 463.137 351.332 464.085 351.332C464.241 351.332 464.409 351.344 464.577 351.368V350.168ZM466.443 352.52C466.491 351.776 467.067 351.044 468.015 351.044C469.035 351.044 469.575 351.692 469.599 352.52H466.443ZM469.767 354.02C469.551 354.668 469.083 355.184 468.147 355.184C467.175 355.184 466.431 354.464 466.407 353.432H470.751C470.763 353.36 470.775 353.216 470.775 353.072C470.775 351.272 469.779 350.048 468.003 350.048C466.551 350.048 465.243 351.284 465.243 353.096C465.243 355.052 466.599 356.18 468.147 356.18C469.491 356.18 470.415 355.376 470.739 354.356L469.767 354.02ZM481.005 356H482.277L478.893 347.492H477.537L474.153 356H475.413L476.313 353.624H480.081L481.005 356ZM478.185 348.716L479.661 352.532H476.733L478.185 348.716ZM484.032 353.096C484.032 351.908 484.704 351.068 485.736 351.068C486.768 351.068 487.392 351.884 487.392 353.072C487.392 354.26 486.756 355.16 485.724 355.16C484.644 355.16 484.032 354.284 484.032 353.096ZM487.404 355.22C487.404 355.568 487.44 355.868 487.464 356H488.556C488.544 355.904 488.496 355.484 488.496 354.932V347.312H487.38V351.044C487.188 350.576 486.636 350.072 485.616 350.072C483.984 350.072 482.88 351.464 482.88 353.096C482.88 354.812 483.924 356.156 485.616 356.156C486.516 356.156 487.128 355.676 487.404 355.124V355.22ZM491.11 353.096C491.11 351.908 491.782 351.068 492.814 351.068C493.846 351.068 494.47 351.884 494.47 353.072C494.47 354.26 493.834 355.16 492.802 355.16C491.722 355.16 491.11 354.284 491.11 353.096ZM494.482 355.22C494.482 355.568 494.518 355.868 494.542 356H495.634C495.622 355.904 495.574 355.484 495.574 354.932V347.312H494.458V351.044C494.266 350.576 493.714 350.072 492.694 350.072C491.062 350.072 489.958 351.464 489.958 353.096C489.958 354.812 491.002 356.156 492.694 356.156C493.594 356.156 494.206 355.676 494.482 355.124V355.22ZM456.037 363.424C455.845 362.5 455.077 361.312 453.157 361.312C451.585 361.312 450.349 362.512 450.349 363.844C450.349 365.116 451.213 365.908 452.425 366.172L453.637 366.436C454.489 366.616 454.909 367.144 454.909 367.756C454.909 368.5 454.333 369.112 453.157 369.112C451.873 369.112 451.201 368.236 451.117 367.288L449.989 367.648C450.145 368.86 451.117 370.18 453.169 370.18C454.981 370.18 456.109 368.98 456.109 367.66C456.109 366.472 455.317 365.584 453.901 365.272L452.629 364.996C451.909 364.84 451.537 364.372 451.537 363.76C451.537 362.968 452.221 362.344 453.181 362.344C454.369 362.344 454.885 363.184 454.981 363.796L456.037 363.424ZM460.114 365.092C461.098 365.092 461.518 365.752 461.662 366.316L462.682 365.884C462.442 365.008 461.65 364.048 460.114 364.048C458.47 364.048 457.21 365.308 457.21 367.108C457.21 368.86 458.446 370.18 460.126 370.18C461.626 370.18 462.454 369.208 462.73 368.38L461.734 367.948C461.602 368.404 461.206 369.136 460.126 369.136C459.19 369.136 458.362 368.428 458.362 367.108C458.362 365.764 459.202 365.092 460.114 365.092ZM466.63 369.172C465.67 369.172 464.83 368.452 464.83 367.108C464.83 365.776 465.67 365.056 466.63 365.056C467.59 365.056 468.43 365.776 468.43 367.108C468.43 368.452 467.59 369.172 466.63 369.172ZM466.63 364.048C464.902 364.048 463.678 365.356 463.678 367.108C463.678 368.872 464.902 370.18 466.63 370.18C468.358 370.18 469.582 368.872 469.582 367.108C469.582 365.356 468.358 364.048 466.63 364.048ZM474.227 364.168C474.167 364.156 474.011 364.132 473.855 364.132C473.267 364.132 472.547 364.348 472.127 365.236V364.228H471.023V370H472.151V367.108C472.151 365.836 472.787 365.332 473.735 365.332C473.891 365.332 474.059 365.344 474.227 365.368V364.168ZM476.093 366.52C476.141 365.776 476.717 365.044 477.665 365.044C478.685 365.044 479.225 365.692 479.249 366.52H476.093ZM479.417 368.02C479.201 368.668 478.733 369.184 477.797 369.184C476.825 369.184 476.081 368.464 476.057 367.432H480.401C480.413 367.36 480.425 367.216 480.425 367.072C480.425 365.272 479.429 364.048 477.653 364.048C476.201 364.048 474.893 365.284 474.893 367.096C474.893 369.052 476.249 370.18 477.797 370.18C479.141 370.18 480.065 369.376 480.389 368.356L479.417 368.02Z" fill="#595959"/>
<path d="M430.951 297.656C440.405 289.168 452.659 284.469 465.364 284.458C478.069 284.447 490.331 289.127 499.799 297.598C509.267 306.07 515.275 317.739 516.671 330.367C518.068 342.995 514.754 355.694 507.365 366.03C499.977 376.365 489.033 383.61 476.633 386.375C466.889 388.548 456.785 387.835 447.527 384.414" stroke="#61A180" stroke-width="4.83775"/>
<rect x="14" y="410" width="535" height="59" fill="#F9F9F8"/>
<path d="M47.088 446V441.232H51.92V439.76H47.088V436.112H52.416V434.656H45.52V446H47.088ZM55.8446 446V438.304H54.3566V446H55.8446ZM54.0206 435.392C54.0206 435.984 54.5006 436.464 55.0926 436.464C55.7006 436.464 56.1806 435.984 56.1806 435.392C56.1806 434.784 55.7006 434.304 55.0926 434.304C54.5006 434.304 54.0206 434.784 54.0206 435.392ZM57.7665 446.416C57.9585 448.064 59.3985 449.28 61.3185 449.28C64.2145 449.28 65.1745 447.376 65.1745 445.424V438.304H63.6865V439.376C63.3025 438.608 62.5025 438.16 61.3185 438.16C59.2065 438.16 57.7825 439.824 57.7825 441.904C57.7825 444.08 59.2705 445.632 61.3185 445.632C62.4705 445.632 63.3025 445.072 63.6705 444.368V445.472C63.6705 447.136 62.9345 447.968 61.3185 447.968C60.1505 447.968 59.3345 447.152 59.2225 446.08L57.7665 446.416ZM61.5425 444.368C60.1825 444.368 59.3185 443.408 59.3185 441.904C59.3185 440.416 60.2145 439.44 61.5425 439.44C62.8385 439.44 63.7345 440.416 63.7345 441.904C63.7345 443.392 62.8385 444.368 61.5425 444.368ZM69.0946 446V441.36C69.0946 440.208 69.8146 439.408 70.8866 439.408C72.0386 439.408 72.5186 440.176 72.5186 441.168V446H74.0226V441.344C74.0226 440.24 74.7426 439.408 75.7986 439.408C76.9346 439.408 77.4306 440.16 77.4306 441.168V446H78.9186V441.008C78.9186 438.992 77.6066 438.08 76.2626 438.08C75.2866 438.08 74.2946 438.432 73.6866 439.536C73.2706 438.544 72.3426 438.08 71.3826 438.08C70.4866 438.08 69.5266 438.48 69.0466 439.328V438.304H67.6066V446H69.0946ZM80.7509 443.936C80.7509 445.152 81.7589 446.24 83.3269 446.24C84.7029 446.24 85.4709 445.504 85.8069 444.96C85.8069 445.52 85.8549 445.808 85.8869 446H87.3589C87.3269 445.808 87.2629 445.408 87.2629 444.736V440.88C87.2629 439.376 86.3669 438.064 84.0629 438.064C82.3989 438.064 81.0709 439.088 80.9109 440.56L82.3509 440.896C82.4469 440 83.0389 439.344 84.0949 439.344C85.2629 439.344 85.7589 439.968 85.7589 440.72C85.7589 440.992 85.6309 441.232 85.1669 441.296L83.0869 441.6C81.7589 441.792 80.7509 442.56 80.7509 443.936ZM83.5349 444.976C82.7669 444.976 82.2869 444.432 82.2869 443.856C82.2869 443.168 82.7669 442.8 83.4069 442.704L85.7589 442.352V442.704C85.7589 444.384 84.7669 444.976 83.5349 444.976Z" fill="#191818"/>
<path d="M14 528H549V569C549 578.941 540.941 587 531 587H32C22.0589 587 14 578.941 14 569V528Z" fill="#F9F9F8"/>
<path d="M51.392 564H53.216L50.512 559.248C52.224 558.928 53.264 557.664 53.264 556.032C53.264 554.16 51.936 552.656 49.792 552.656H45.52V564H47.104V559.36H48.8L51.392 564ZM47.104 557.952V554.064H49.504C50.784 554.064 51.648 554.832 51.648 556.032C51.648 557.2 50.784 557.952 49.504 557.952H47.104ZM55.929 559.36C55.993 558.368 56.761 557.392 58.025 557.392C59.385 557.392 60.105 558.256 60.137 559.36H55.929ZM60.361 561.36C60.073 562.224 59.449 562.912 58.201 562.912C56.905 562.912 55.913 561.952 55.881 560.576H61.673C61.689 560.48 61.705 560.288 61.705 560.096C61.705 557.696 60.377 556.064 58.009 556.064C56.073 556.064 54.329 557.712 54.329 560.128C54.329 562.736 56.137 564.24 58.201 564.24C59.993 564.24 61.225 563.168 61.657 561.808L60.361 561.36ZM62.983 562C63.111 562.88 64.007 564.24 66.119 564.24C68.023 564.24 68.935 562.944 68.935 561.856C68.935 560.72 68.199 559.872 66.807 559.568L65.559 559.296C64.967 559.168 64.679 558.832 64.679 558.368C64.679 557.84 65.191 557.344 65.959 557.344C67.175 557.344 67.495 558.224 67.559 558.624L68.887 558.128C68.727 557.44 68.071 556.064 65.959 556.064C64.455 556.064 63.223 557.184 63.223 558.496C63.223 559.584 63.943 560.4 65.143 560.656L66.455 560.944C67.095 561.088 67.447 561.456 67.447 561.936C67.447 562.48 66.983 562.96 66.135 562.96C65.047 562.96 64.439 562.32 64.343 561.52L62.983 562ZM72.3603 564V556.304H70.8723V564H72.3603ZM70.5363 553.392C70.5363 553.984 71.0163 554.464 71.6083 554.464C72.2163 554.464 72.6963 553.984 72.6963 553.392C72.6963 552.784 72.2163 552.304 71.6083 552.304C71.0163 552.304 70.5363 552.784 70.5363 553.392ZM76.2981 564V552.416H74.7941V564H76.2981ZM80.2196 564V556.304H78.7316V564H80.2196ZM78.3956 553.392C78.3956 553.984 78.8756 554.464 79.4676 554.464C80.0756 554.464 80.5556 553.984 80.5556 553.392C80.5556 552.784 80.0756 552.304 79.4676 552.304C78.8756 552.304 78.3956 552.784 78.3956 553.392ZM83.7415 559.36C83.8055 558.368 84.5735 557.392 85.8375 557.392C87.1975 557.392 87.9175 558.256 87.9495 559.36H83.7415ZM88.1735 561.36C87.8855 562.224 87.2615 562.912 86.0135 562.912C84.7175 562.912 83.7255 561.952 83.6935 560.576H89.4855C89.5015 560.48 89.5175 560.288 89.5175 560.096C89.5175 557.696 88.1895 556.064 85.8215 556.064C83.8855 556.064 82.1415 557.712 82.1415 560.128C82.1415 562.736 83.9495 564.24 86.0135 564.24C87.8055 564.24 89.0375 563.168 89.4695 561.808L88.1735 561.36ZM92.9075 559.552C92.9075 558.384 93.5155 557.44 94.6995 557.44C96.0435 557.44 96.4915 558.304 96.4915 559.376V564H97.9955V559.12C97.9955 557.408 97.0835 556.08 95.2435 556.08C94.3475 556.08 93.4355 556.448 92.8755 557.408V556.304H91.4035V564H92.9075V559.552ZM103.701 557.456C105.013 557.456 105.573 558.336 105.765 559.088L107.125 558.512C106.805 557.344 105.749 556.064 103.701 556.064C101.509 556.064 99.829 557.744 99.829 560.144C99.829 562.48 101.477 564.24 103.717 564.24C105.717 564.24 106.821 562.944 107.189 561.84L105.861 561.264C105.685 561.872 105.157 562.848 103.717 562.848C102.469 562.848 101.365 561.904 101.365 560.144C101.365 558.352 102.485 557.456 103.701 557.456ZM110.054 559.36C110.118 558.368 110.886 557.392 112.15 557.392C113.51 557.392 114.23 558.256 114.262 559.36H110.054ZM114.486 561.36C114.198 562.224 113.574 562.912 112.326 562.912C111.03 562.912 110.038 561.952 110.006 560.576H115.798C115.814 560.48 115.83 560.288 115.83 560.096C115.83 557.696 114.502 556.064 112.134 556.064C110.198 556.064 108.454 557.712 108.454 560.128C108.454 562.736 110.262 564.24 112.326 564.24C114.118 564.24 115.35 563.168 115.782 561.808L114.486 561.36Z" fill="#191818"/>
<rect x="14" y="469" width="535" height="59" fill="white"/>
<path d="M50.416 505.24C53.024 505.24 54.816 503.72 55.424 501.592L54.032 501.08C53.568 502.632 52.352 503.8 50.416 503.8C48.352 503.8 46.384 502.28 46.384 499.32C46.384 496.36 48.352 494.856 50.416 494.856C52.272 494.856 53.52 495.816 53.952 497.528L55.408 497.016C54.832 494.824 53.008 493.416 50.416 493.416C47.6 493.416 44.784 495.528 44.784 499.32C44.784 503.112 47.488 505.24 50.416 505.24ZM61.4568 497.224C61.3768 497.208 61.1688 497.176 60.9608 497.176C60.1768 497.176 59.2168 497.464 58.6568 498.648V497.304H57.1848V505H58.6888V501.144C58.6888 499.448 59.5368 498.776 60.8008 498.776C61.0088 498.776 61.2328 498.792 61.4568 498.824V497.224ZM63.9446 500.36C64.0086 499.368 64.7766 498.392 66.0406 498.392C67.4006 498.392 68.1206 499.256 68.1526 500.36H63.9446ZM68.3766 502.36C68.0886 503.224 67.4646 503.912 66.2166 503.912C64.9206 503.912 63.9286 502.952 63.8966 501.576H69.6886C69.7046 501.48 69.7206 501.288 69.7206 501.096C69.7206 498.696 68.3926 497.064 66.0246 497.064C64.0886 497.064 62.3446 498.712 62.3446 501.128C62.3446 503.736 64.1526 505.24 66.2166 505.24C68.0086 505.24 69.2406 504.168 69.6726 502.808L68.3766 502.36ZM71.0946 502.936C71.0946 504.152 72.1026 505.24 73.6706 505.24C75.0466 505.24 75.8146 504.504 76.1506 503.96C76.1506 504.52 76.1986 504.808 76.2306 505H77.7026C77.6706 504.808 77.6066 504.408 77.6066 503.736V499.88C77.6066 498.376 76.7106 497.064 74.4066 497.064C72.7426 497.064 71.4146 498.088 71.2546 499.56L72.6946 499.896C72.7906 499 73.3826 498.344 74.4386 498.344C75.6066 498.344 76.1026 498.968 76.1026 499.72C76.1026 499.992 75.9746 500.232 75.5106 500.296L73.4306 500.6C72.1026 500.792 71.0946 501.56 71.0946 502.936ZM73.8786 503.976C73.1106 503.976 72.6306 503.432 72.6306 502.856C72.6306 502.168 73.1106 501.8 73.7506 501.704L76.1026 501.352V501.704C76.1026 503.384 75.1106 503.976 73.8786 503.976ZM82.0151 494.872H80.6391V496.12C80.6391 496.792 80.2871 497.304 79.4551 497.304H79.0391V498.664H80.5111V502.888C80.5111 504.28 81.3431 505.08 82.6551 505.08C83.1671 505.08 83.5511 504.984 83.6791 504.936V503.656C83.5511 503.688 83.2791 503.72 83.0871 503.72C82.3031 503.72 82.0151 503.368 82.0151 502.664V498.664H83.6791V497.304H82.0151V494.872ZM86.954 505V497.304H85.466V505H86.954ZM85.13 494.392C85.13 494.984 85.61 495.464 86.202 495.464C86.81 495.464 87.29 494.984 87.29 494.392C87.29 493.784 86.81 493.304 86.202 493.304C85.61 493.304 85.13 493.784 85.13 494.392ZM96.2359 497.304H94.6199L92.4119 503.24L90.2199 497.304H88.5239L91.6439 505H93.1639L96.2359 497.304ZM99.329 505V497.304H97.841V505H99.329ZM97.505 494.392C97.505 494.984 97.985 495.464 98.577 495.464C99.185 495.464 99.665 494.984 99.665 494.392C99.665 493.784 99.185 493.304 98.577 493.304C97.985 493.304 97.505 493.784 97.505 494.392ZM103.859 494.872H102.483V496.12C102.483 496.792 102.131 497.304 101.299 497.304H100.883V498.664H102.355V502.888C102.355 504.28 103.187 505.08 104.499 505.08C105.011 505.08 105.395 504.984 105.523 504.936V503.656C105.395 503.688 105.123 503.72 104.931 503.72C104.147 503.72 103.859 503.368 103.859 502.664V498.664H105.523V497.304H103.859V494.872ZM109.454 508.216L114.462 497.304H112.846L110.542 502.616L108.142 497.304H106.414L109.726 504.152L107.806 508.216H109.454Z" fill="#191818"/>
<circle cx="400" cy="499" r="12" fill="#FDDDE0"/>
<path d="M394.049 498.14C394.037 498.008 394.013 497.864 394.013 497.744C394.013 496.94 394.457 496.304 395.369 496.304C396.245 496.304 396.677 496.88 396.677 497.516C396.677 498.08 396.377 498.548 395.681 498.98L394.397 499.784C393.041 500.624 392.573 501.668 392.549 503H398.177V501.728H394.325C394.433 501.344 394.745 501.068 395.117 500.84L396.629 499.904C397.565 499.328 398.129 498.5 398.129 497.492C398.129 496.16 397.109 495.044 395.393 495.044C393.629 495.044 392.621 496.256 392.621 497.6C392.621 497.756 392.645 497.936 392.657 498.044L394.049 498.14ZM399.36 502.1C399.36 502.64 399.792 503.072 400.332 503.072C400.872 503.072 401.316 502.64 401.316 502.1C401.316 501.56 400.872 501.116 400.332 501.116C399.792 501.116 399.36 501.56 399.36 502.1ZM402.62 502.736C403.016 503 403.784 503.18 404.42 503.18C407.06 503.18 408.404 501.5 408.404 498.68C408.404 496.196 406.952 495.044 405.332 495.044C403.7 495.044 402.404 496.148 402.404 497.756C402.404 499.412 403.688 500.372 405.092 500.372C406.016 500.372 406.7 499.976 406.988 499.472C406.916 500.936 406.04 501.92 404.408 501.92C403.892 501.92 403.316 501.752 403.016 501.56L402.62 502.736ZM406.796 497.708C406.796 498.596 406.088 499.16 405.308 499.16C404.504 499.16 403.82 498.62 403.82 497.708C403.82 496.832 404.516 496.268 405.308 496.268C406.088 496.268 406.796 496.844 406.796 497.708Z" fill="#CA2D3D"/>
<circle cx="486" cy="440" r="12" fill="#FDDDE0"/>
<path d="M480.049 439.14C480.037 439.008 480.013 438.864 480.013 438.744C480.013 437.94 480.457 437.304 481.369 437.304C482.245 437.304 482.677 437.88 482.677 438.516C482.677 439.08 482.377 439.548 481.681 439.98L480.397 440.784C479.041 441.624 478.573 442.668 478.549 444H484.177V442.728H480.325C480.433 442.344 480.745 442.068 481.117 441.84L482.629 440.904C483.565 440.328 484.129 439.5 484.129 438.492C484.129 437.16 483.109 436.044 481.393 436.044C479.629 436.044 478.621 437.256 478.621 438.6C478.621 438.756 478.645 438.936 478.657 439.044L480.049 439.14ZM485.36 443.1C485.36 443.64 485.792 444.072 486.332 444.072C486.872 444.072 487.316 443.64 487.316 443.1C487.316 442.56 486.872 442.116 486.332 442.116C485.792 442.116 485.36 442.56 485.36 443.1ZM488.62 443.736C489.016 444 489.784 444.18 490.42 444.18C493.06 444.18 494.404 442.5 494.404 439.68C494.404 437.196 492.952 436.044 491.332 436.044C489.7 436.044 488.404 437.148 488.404 438.756C488.404 440.412 489.688 441.372 491.092 441.372C492.016 441.372 492.7 440.976 492.988 440.472C492.916 441.936 492.04 442.92 490.408 442.92C489.892 442.92 489.316 442.752 489.016 442.56L488.62 443.736ZM492.796 438.708C492.796 439.596 492.088 440.16 491.308 440.16C490.504 440.16 489.82 439.62 489.82 438.708C489.82 437.832 490.516 437.268 491.308 437.268C492.088 437.268 492.796 437.844 492.796 438.708Z" fill="#CA2D3D"/>
<circle cx="400" cy="558" r="12" fill="#FDDDE0"/>
<path d="M394.12 557.14C394.108 557.008 394.084 556.864 394.084 556.744C394.084 555.94 394.528 555.304 395.44 555.304C396.316 555.304 396.748 555.88 396.748 556.516C396.748 557.08 396.448 557.548 395.752 557.98L394.468 558.784C393.112 559.624 392.644 560.668 392.62 562H398.248V560.728H394.396C394.504 560.344 394.816 560.068 395.188 559.84L396.7 558.904C397.636 558.328 398.2 557.5 398.2 556.492C398.2 555.16 397.18 554.044 395.464 554.044C393.7 554.044 392.692 555.256 392.692 556.6C392.692 556.756 392.716 556.936 392.728 557.044L394.12 557.14ZM399.43 561.1C399.43 561.64 399.862 562.072 400.402 562.072C400.942 562.072 401.386 561.64 401.386 561.1C401.386 560.56 400.942 560.116 400.402 560.116C399.862 560.116 399.43 560.56 399.43 561.1ZM405.438 557.464C404.67 557.464 404.166 556.972 404.166 556.324C404.166 555.736 404.646 555.22 405.438 555.22C406.23 555.22 406.722 555.736 406.722 556.324C406.722 556.972 406.218 557.464 405.438 557.464ZM405.438 560.968C404.502 560.968 403.986 560.416 403.986 559.78C403.986 559.144 404.502 558.58 405.438 558.58C406.386 558.58 406.902 559.144 406.902 559.78C406.902 560.416 406.386 560.968 405.438 560.968ZM405.438 562.18C407.226 562.18 408.33 561.22 408.33 559.924C408.33 559.036 407.706 558.304 406.89 558.016C407.634 557.74 408.15 556.996 408.15 556.24C408.15 554.944 406.998 554.044 405.438 554.044C403.878 554.044 402.738 554.944 402.738 556.24C402.738 557.008 403.254 557.74 403.998 558.016C403.17 558.304 402.558 559.036 402.558 559.924C402.558 561.22 403.662 562.18 405.438 562.18Z" fill="#CA2D3D"/>
<circle cx="486" cy="558" r="12" fill="#FDDDE0"/>
<path d="M480.12 557.14C480.108 557.008 480.084 556.864 480.084 556.744C480.084 555.94 480.528 555.304 481.44 555.304C482.316 555.304 482.748 555.88 482.748 556.516C482.748 557.08 482.448 557.548 481.752 557.98L480.468 558.784C479.112 559.624 478.644 560.668 478.62 562H484.248V560.728H480.396C480.504 560.344 480.816 560.068 481.188 559.84L482.7 558.904C483.636 558.328 484.2 557.5 484.2 556.492C484.2 555.16 483.18 554.044 481.464 554.044C479.7 554.044 478.692 555.256 478.692 556.6C478.692 556.756 478.716 556.936 478.728 557.044L480.12 557.14ZM485.43 561.1C485.43 561.64 485.862 562.072 486.402 562.072C486.942 562.072 487.386 561.64 487.386 561.1C487.386 560.56 486.942 560.116 486.402 560.116C485.862 560.116 485.43 560.56 485.43 561.1ZM491.438 557.464C490.67 557.464 490.166 556.972 490.166 556.324C490.166 555.736 490.646 555.22 491.438 555.22C492.23 555.22 492.722 555.736 492.722 556.324C492.722 556.972 492.218 557.464 491.438 557.464ZM491.438 560.968C490.502 560.968 489.986 560.416 489.986 559.78C489.986 559.144 490.502 558.58 491.438 558.58C492.386 558.58 492.902 559.144 492.902 559.78C492.902 560.416 492.386 560.968 491.438 560.968ZM491.438 562.18C493.226 562.18 494.33 561.22 494.33 559.924C494.33 559.036 493.706 558.304 492.89 558.016C493.634 557.74 494.15 556.996 494.15 556.24C494.15 554.944 492.998 554.044 491.438 554.044C489.878 554.044 488.738 554.944 488.738 556.24C488.738 557.008 489.254 557.74 489.998 558.016C489.17 558.304 488.558 559.036 488.558 559.924C488.558 561.22 489.662 562.18 491.438 562.18Z" fill="#CA2D3D"/>
<circle cx="228" cy="440" r="12" fill="#D9E8E0"/>
<path d="M219.536 442.296H223.28V444H224.696V442.296H226.004V441.024H224.696V436.224H222.848L219.536 440.736V442.296ZM223.28 441.024H220.832L223.28 437.676V441.024ZM226.971 443.1C226.971 443.64 227.403 444.072 227.943 444.072C228.483 444.072 228.927 443.64 228.927 443.1C228.927 442.56 228.483 442.116 227.943 442.116C227.403 442.116 226.971 442.56 226.971 443.1ZM231.34 440.112C231.34 438.432 231.844 437.316 233.092 437.316C234.328 437.316 234.832 438.42 234.832 440.112C234.832 441.804 234.328 442.908 233.092 442.908C231.856 442.908 231.34 441.804 231.34 440.112ZM229.912 440.112C229.912 442.116 230.704 444.18 233.092 444.18C235.468 444.18 236.26 442.116 236.26 440.112C236.26 438.12 235.468 436.044 233.092 436.044C230.704 436.044 229.912 438.108 229.912 440.112Z" fill="#316349"/>
<circle cx="314" cy="499" r="12" fill="#D9E8E0"/>
<path d="M305.536 501.296H309.28V503H310.696V501.296H312.004V500.024H310.696V495.224H308.848L305.536 499.736V501.296ZM309.28 500.024H306.832L309.28 496.676V500.024ZM312.971 502.1C312.971 502.64 313.403 503.072 313.943 503.072C314.483 503.072 314.927 502.64 314.927 502.1C314.927 501.56 314.483 501.116 313.943 501.116C313.403 501.116 312.971 501.56 312.971 502.1ZM317.34 499.112C317.34 497.432 317.844 496.316 319.092 496.316C320.328 496.316 320.832 497.42 320.832 499.112C320.832 500.804 320.328 501.908 319.092 501.908C317.856 501.908 317.34 500.804 317.34 499.112ZM315.912 499.112C315.912 501.116 316.704 503.18 319.092 503.18C321.468 503.18 322.26 501.116 322.26 499.112C322.26 497.12 321.468 495.044 319.092 495.044C316.704 495.044 315.912 497.108 315.912 499.112Z" fill="#316349"/>
<circle cx="314" cy="440" r="12" fill="#D9E8E0"/>
<path d="M305.536 442.296H309.28V444H310.696V442.296H312.004V441.024H310.696V436.224H308.848L305.536 440.736V442.296ZM309.28 441.024H306.832L309.28 437.676V441.024ZM312.971 443.1C312.971 443.64 313.403 444.072 313.943 444.072C314.483 444.072 314.927 443.64 314.927 443.1C314.927 442.56 314.483 442.116 313.943 442.116C313.403 442.116 312.971 442.56 312.971 443.1ZM317.34 440.112C317.34 438.432 317.844 437.316 319.092 437.316C320.328 437.316 320.832 438.42 320.832 440.112C320.832 441.804 320.328 442.908 319.092 442.908C317.856 442.908 317.34 441.804 317.34 440.112ZM315.912 440.112C315.912 442.116 316.704 444.18 319.092 444.18C321.468 444.18 322.26 442.116 322.26 440.112C322.26 438.12 321.468 436.044 319.092 436.044C316.704 436.044 315.912 438.108 315.912 440.112Z" fill="#316349"/>
<circle cx="228" cy="499" r="12" fill="#FAE9D1"/>
<path d="M222.881 499.472C223.001 499.412 223.241 499.34 223.613 499.34C224.273 499.34 224.993 499.724 224.993 500.624C224.993 501.332 224.465 501.944 223.517 501.944C222.653 501.944 222.005 501.332 221.969 500.432L220.565 500.72C220.661 502.016 221.729 503.18 223.529 503.18C225.377 503.18 226.445 501.968 226.445 500.636C226.445 499.136 225.281 498.296 224.117 498.272L226.229 496.424V495.224H220.829V496.484H224.369L222.221 498.404L222.881 499.472ZM227.624 502.1C227.624 502.64 228.056 503.072 228.596 503.072C229.136 503.072 229.58 502.64 229.58 502.1C229.58 501.56 229.136 501.116 228.596 501.116C228.056 501.116 227.624 501.56 227.624 502.1ZM230.548 500.852C230.644 502.076 231.796 503.192 233.476 503.192C235.276 503.192 236.404 501.968 236.404 500.504C236.404 498.872 235.288 497.912 233.74 497.912C233.188 497.912 232.588 498.104 232.252 498.452L232.732 496.484H236.02V495.224H231.76L230.8 499.148L232.156 499.64C232.432 499.328 232.9 499.1 233.452 499.1C234.244 499.1 234.952 499.58 234.952 500.54C234.952 501.404 234.292 501.956 233.476 501.956C232.576 501.956 231.964 501.332 231.904 500.504L230.548 500.852Z" fill="#9E702E"/>
<circle cx="228" cy="558" r="12" fill="#FAE9D1"/>
<path d="M222.881 558.472C223.001 558.412 223.241 558.34 223.613 558.34C224.273 558.34 224.993 558.724 224.993 559.624C224.993 560.332 224.465 560.944 223.517 560.944C222.653 560.944 222.005 560.332 221.969 559.432L220.565 559.72C220.661 561.016 221.729 562.18 223.529 562.18C225.377 562.18 226.445 560.968 226.445 559.636C226.445 558.136 225.281 557.296 224.117 557.272L226.229 555.424V554.224H220.829V555.484H224.369L222.221 557.404L222.881 558.472ZM227.624 561.1C227.624 561.64 228.056 562.072 228.596 562.072C229.136 562.072 229.58 561.64 229.58 561.1C229.58 560.56 229.136 560.116 228.596 560.116C228.056 560.116 227.624 560.56 227.624 561.1ZM230.548 559.852C230.644 561.076 231.796 562.192 233.476 562.192C235.276 562.192 236.404 560.968 236.404 559.504C236.404 557.872 235.288 556.912 233.74 556.912C233.188 556.912 232.588 557.104 232.252 557.452L232.732 555.484H236.02V554.224H231.76L230.8 558.148L232.156 558.64C232.432 558.328 232.9 558.1 233.452 558.1C234.244 558.1 234.952 558.58 234.952 559.54C234.952 560.404 234.292 560.956 233.476 560.956C232.576 560.956 231.964 560.332 231.904 559.504L230.548 559.852Z" fill="#9E702E"/>
<circle cx="400" cy="440" r="12" fill="#FAE9D1"/>
<path d="M395.805 440.472C395.925 440.412 396.165 440.34 396.537 440.34C397.197 440.34 397.917 440.724 397.917 441.624C397.917 442.332 397.389 442.944 396.441 442.944C395.577 442.944 394.929 442.332 394.893 441.432L393.489 441.72C393.585 443.016 394.653 444.18 396.453 444.18C398.301 444.18 399.369 442.968 399.369 441.636C399.369 440.136 398.205 439.296 397.041 439.272L399.153 437.424V436.224H393.753V437.484H397.293L395.145 439.404L395.805 440.472ZM400.548 443.1C400.548 443.64 400.98 444.072 401.52 444.072C402.06 444.072 402.504 443.64 402.504 443.1C402.504 442.56 402.06 442.116 401.52 442.116C400.98 442.116 400.548 442.56 400.548 443.1ZM406.149 444V436.224H404.901C404.733 437.04 403.965 437.664 402.849 437.688V438.672H404.733V444H406.149Z" fill="#9E702E"/>
<circle cx="486" cy="499" r="12" fill="#FAE9D1"/>
<path d="M481.805 499.472C481.925 499.412 482.165 499.34 482.537 499.34C483.197 499.34 483.917 499.724 483.917 500.624C483.917 501.332 483.389 501.944 482.441 501.944C481.577 501.944 480.929 501.332 480.893 500.432L479.489 500.72C479.585 502.016 480.653 503.18 482.453 503.18C484.301 503.18 485.369 501.968 485.369 500.636C485.369 499.136 484.205 498.296 483.041 498.272L485.153 496.424V495.224H479.753V496.484H483.293L481.145 498.404L481.805 499.472ZM486.548 502.1C486.548 502.64 486.98 503.072 487.52 503.072C488.06 503.072 488.504 502.64 488.504 502.1C488.504 501.56 488.06 501.116 487.52 501.116C486.98 501.116 486.548 501.56 486.548 502.1ZM492.149 503V495.224H490.901C490.733 496.04 489.965 496.664 488.849 496.688V497.672H490.733V503H492.149Z" fill="#9E702E"/>
<circle cx="314" cy="558" r="12" fill="#FAE9D1"/>
<path d="M308.776 558.472C308.896 558.412 309.136 558.34 309.508 558.34C310.168 558.34 310.888 558.724 310.888 559.624C310.888 560.332 310.36 560.944 309.412 560.944C308.548 560.944 307.9 560.332 307.864 559.432L306.46 559.72C306.556 561.016 307.624 562.18 309.424 562.18C311.272 562.18 312.34 560.968 312.34 559.636C312.34 558.136 311.176 557.296 310.012 557.272L312.124 555.424V554.224H306.724V555.484H310.264L308.116 557.404L308.776 558.472ZM313.518 561.1C313.518 561.64 313.95 562.072 314.49 562.072C315.03 562.072 315.474 561.64 315.474 561.1C315.474 560.56 315.03 560.116 314.49 560.116C313.95 560.116 313.518 560.56 313.518 561.1ZM319.526 557.464C318.758 557.464 318.254 556.972 318.254 556.324C318.254 555.736 318.734 555.22 319.526 555.22C320.318 555.22 320.81 555.736 320.81 556.324C320.81 556.972 320.306 557.464 319.526 557.464ZM319.526 560.968C318.59 560.968 318.074 560.416 318.074 559.78C318.074 559.144 318.59 558.58 319.526 558.58C320.474 558.58 320.99 559.144 320.99 559.78C320.99 560.416 320.474 560.968 319.526 560.968ZM319.526 562.18C321.314 562.18 322.418 561.22 322.418 559.924C322.418 559.036 321.794 558.304 320.978 558.016C321.722 557.74 322.238 556.996 322.238 556.24C322.238 554.944 321.086 554.044 319.526 554.044C317.966 554.044 316.826 554.944 316.826 556.24C316.826 557.008 317.342 557.74 318.086 558.016C317.258 558.304 316.646 559.036 316.646 559.924C316.646 561.22 317.75 562.18 319.526 562.18Z" fill="#9E702E"/>
<defs>
<filter id="filter0_d_545_1482" x="47" y="0" width="469" height="701" filterUnits="userSpaceOnUse" color-interpolation-filters="sRGB">
<feFlood flood-opacity="0" result="BackgroundImageFix"/>
<feColorMatrix in="SourceAlpha" type="matrix" values="0 0 0 0 0 0 0 0 0 0 0 0 0 0 0 0 0 0 127 0" result="hardAlpha"/>
<feOffset dy="4"/>
<feGaussianBlur stdDeviation="2"/>
<feComposite in2="hardAlpha" operator="out"/>
<feColorMatrix type="matrix" values="0 0 0 0 0 0 0 0 0 0 0 0 0 0 0 0 0 0 0.1 0"/>
<feBlend mode="normal" in2="BackgroundImageFix" result="effect1_dropShadow_545_1482"/>
<feBlend mode="normal" in="SourceGraphic" in2="effect1_dropShadow_545_1482" result="shape"/>
</filter>
<filter id="filter1_d_545_1482" x="4" y="195" width="555" height="406" filterUnits="userSpaceOnUse" color-interpolation-filters="sRGB">
<feFlood flood-opacity="0" result="BackgroundImageFix"/>
<feColorMatrix in="SourceAlpha" type="matrix" values="0 0 0 0 0 0 0 0 0 0 0 0 0 0 0 0 0 0 127 0" result="hardAlpha"/>
<feOffset dy="4"/>
<feGaussianBlur stdDeviation="5"/>
<feColorMatrix type="matrix" values="0 0 0 0 0 0 0 0 0 0 0 0 0 0 0 0 0 0 0.1 0"/>
<feBlend mode="normal" in2="BackgroundImageFix" result="effect1_dropShadow_545_1482"/>
<feBlend mode="normal" in="SourceGraphic" in2="effect1_dropShadow_545_1482" result="shape"/>
</filter>
</defs>
</svg>
